<svg width="329" height="327" viewBox="0 0 329 327" fill="none" xmlns="http://www.w3.org/2000/svg">
<circle cx="164.558" cy="164.476" r="163.609" fill="#326CF4"/>
<circle cx="164.557" cy="164.485" r="150.113" fill="white"/>
<mask id="mask0_1325_1551" style="mask-type:alpha" maskUnits="userSpaceOnUse" x="14" y="14" width="301" height="301">
<circle cx="164.557" cy="164.483" r="150.113" fill="white"/>
</mask>
<g mask="url(#mask0_1325_1551)">
<path fill-rule="evenodd" clip-rule="evenodd" d="M188.1 77.9666C184.312 77.9599 179.141 78.2926 176.608 78.7072C174.075 79.1218 168.917 80.5188 165.145 81.8132C161.373 83.1066 155.505 85.8694 152.105 87.9526C148.704 90.0356 144.353 93.1289 142.436 94.8256C140.518 96.5232 136.915 100.401 134.431 103.443C131.945 106.485 128.6 111.335 126.996 114.22C124.943 117.912 123.284 122.669 121.395 130.282C119.473 138.028 118.742 142.898 118.821 147.444C118.931 153.791 118.931 153.791 79.9124 177.276C58.4521 190.192 40.7945 201.16 40.6732 201.648C40.5516 202.136 42.1489 205.322 44.2218 208.726C46.2944 212.132 48.505 215.045 49.1331 215.202C49.7621 215.358 67.6868 207.771 88.9661 198.342C127.656 181.198 127.656 181.198 130.414 185.531C131.932 187.915 134.115 191.025 135.268 192.442C137.152 194.76 137.294 195.931 136.684 204.125C136.311 209.135 136.134 217.018 136.293 221.645C136.451 226.272 137.235 234.67 138.034 240.305C138.834 245.942 140.725 254.998 142.236 260.431C143.749 265.863 146.876 274.802 149.186 280.292C151.497 285.783 155.277 293.687 157.589 297.858C159.901 302.029 164.335 308.978 167.443 313.303C170.552 317.628 176.295 324.687 180.208 328.991C184.12 333.294 191.128 340.024 195.781 343.945C200.434 347.866 208.526 353.79 213.764 357.11C219.001 360.431 227.184 364.93 231.948 367.108C236.711 369.288 242.474 371.879 244.755 372.866C248.723 374.583 249.013 374.966 251.481 381.732C252.899 385.622 255.119 393.615 256.413 399.495C257.707 405.374 259.124 413.995 259.562 418.651C260 423.307 260.282 431.439 260.188 436.721C260.096 442.003 259.158 451.808 258.106 458.51C256.745 467.182 256.514 470.7 257.306 470.713C257.917 470.722 261.73 468.453 265.777 465.67C269.825 462.887 277.084 457.03 281.909 452.655C286.733 448.278 293.611 441.1 297.192 436.704C300.774 432.307 305.744 425.496 308.237 421.569C310.731 417.642 314.487 410.928 316.584 406.649C318.682 402.371 321.925 394.703 323.792 389.609C325.759 384.24 328.201 375.389 329.602 368.547C330.931 362.056 332.274 353.089 332.585 348.619C332.897 344.149 333.036 336.122 332.894 330.782C332.753 325.441 332.049 317.274 331.331 312.633C330.613 307.991 329.547 303.86 328.964 303.451C328.38 303.043 323.726 304.114 318.62 305.831C313.515 307.548 305.292 310.09 300.345 311.479C295.4 312.869 286.772 314.943 281.174 316.089C275.575 317.235 267.637 318.187 263.532 318.202C256.683 318.23 253.993 317.691 230.822 311.651C205.744 305.114 205.534 305.043 199.256 300.93C195.781 298.653 190.608 294.518 187.761 291.742C184.723 288.779 180.279 282.839 176.999 277.355C172.383 269.637 171.068 266.423 169.435 258.848C168.347 253.805 167.436 247.194 167.412 244.156C167.386 241.118 167.929 235.465 168.619 231.595C169.309 227.724 170.721 222.529 171.757 220.05C173.641 215.544 173.641 215.544 182.662 216.208C187.623 216.573 192.858 216.714 194.295 216.52C195.733 216.326 196.883 216.255 196.851 216.361C196.819 216.467 195.738 218.32 194.449 220.48C193.093 222.752 191.289 227.724 190.169 232.277C189.106 236.606 188.203 242 188.163 244.264C188.124 246.528 188.704 251.219 189.452 254.689C190.279 258.529 192.344 263.538 194.725 267.484C196.876 271.05 200.377 275.547 202.506 277.478C204.635 279.407 209.195 282.505 212.641 284.362C216.088 286.218 220.891 288.223 223.315 288.817C225.739 289.411 230.497 289.994 233.888 290.113C237.279 290.231 242.792 289.674 246.139 288.876C250.411 287.855 255.643 285.341 263.704 280.435C270.019 276.592 279.636 270.067 285.077 265.934C290.519 261.803 299.417 254.361 304.852 249.397C310.288 244.433 317.53 237.346 320.946 233.648C324.363 229.95 329.599 223.811 332.582 220.005C335.565 216.2 340.134 209.794 342.734 205.77C345.334 201.746 349.143 195.046 351.201 190.88C353.257 186.715 356.252 179.499 357.856 174.846C359.658 169.619 361.25 163.071 362.022 157.718C362.708 152.951 363.113 146.23 362.923 142.784C362.733 139.338 362.221 134.982 361.784 133.105C361.348 131.228 359.886 127.041 358.535 123.799C357.185 120.558 355.66 117.802 355.147 117.674C354.634 117.547 330.476 131.693 301.463 149.109C272.449 166.526 249.167 179.997 249.724 179.045C250.282 178.093 251.836 174.354 253.18 170.735C254.589 166.938 256.072 160.96 256.686 156.595C257.271 152.436 257.65 146.734 257.526 143.924C257.403 141.115 256.618 135.753 255.781 132.009C254.946 128.265 253.385 123.066 252.313 120.455C251.241 117.844 248.468 112.813 246.152 109.275C243.835 105.737 240.068 100.99 237.781 98.7261C235.493 96.4623 231.488 93.0622 228.88 91.1707C226.272 89.2783 221.672 86.5313 218.659 85.0662C215.645 83.6003 209.086 81.406 204.083 80.1903C198.302 78.7847 192.478 77.974 188.1 77.9666ZM398.231 177.003C377.996 180.958 377.996 180.958 374.316 189.596C372.293 194.347 368.692 201.754 366.317 206.055C363.941 210.356 359.622 217.343 356.72 221.582C353.817 225.821 348.603 232.78 345.132 237.048C341.662 241.315 335.624 248.081 331.715 252.085C327.806 256.087 320.995 262.598 316.58 266.552C312.163 270.507 304.07 277.122 298.594 281.252C293.118 285.383 287.423 289.66 285.94 290.757C284.457 291.855 283.41 293.029 283.615 293.368C283.818 293.706 284.799 293.931 285.795 293.868C286.791 293.804 294.57 291.622 303.083 289.018C311.596 286.414 323.791 282.063 330.185 279.351C336.579 276.639 346.286 272.077 351.756 269.212C357.226 266.348 365.9 261.118 371.03 257.59C376.16 254.064 384.294 247.603 389.104 243.234C393.915 238.865 400.22 232.372 403.115 228.805C406.01 225.237 409.939 219.606 411.845 216.291C413.878 212.756 416.468 206.484 418.106 201.125C419.87 195.36 421.005 189.894 421.182 186.313C421.337 183.19 421.24 179.013 420.966 177.028C420.693 175.045 420.018 173.337 419.467 173.235C418.916 173.132 409.36 174.828 398.231 177.003ZM178.871 123.92C180.212 125.019 181.694 127.209 182.164 128.784C182.633 130.361 182.762 132.68 182.449 133.939C182.136 135.198 181.019 137.208 179.966 138.406C178.912 139.604 177.032 140.977 175.787 141.455C174.542 141.935 171.945 141.934 170.015 141.454C168.086 140.974 165.791 139.758 164.916 138.752C164.039 137.746 163.021 135.652 162.652 134.101C162.283 132.549 162.237 130.249 162.55 128.991C162.863 127.732 164.059 125.747 165.208 124.58C166.356 123.412 168.629 122.166 170.26 121.81C171.89 121.455 173.946 121.334 174.828 121.543C175.711 121.75 177.53 122.82 178.871 123.92Z" fill="#326CF4"/>
<circle r="27.7269" transform="matrix(-0.970443 -0.24133 -0.24133 0.970443 182.052 136.687)" fill="white"/>
<circle r="14.5297" transform="matrix(-0.970443 -0.24133 -0.24133 0.970443 182.051 136.693)" fill="#5A5E6A"/>
</g>
<path d="M281.414 114.779C285.034 113.111 286.632 108.813 284.785 105.281C270.788 78.5118 248.708 56.7488 221.601 43.1474C194.493 29.5461 163.848 24.8548 134.021 29.6344C130.085 30.2652 127.595 34.1157 128.421 38.0154V38.0154C129.248 41.9152 133.078 44.3854 137.018 43.7765C163.637 39.6624 190.945 43.9175 215.127 56.0504C239.308 68.1833 259.043 87.5322 271.656 111.331C273.523 114.854 277.793 116.448 281.414 114.779V114.779Z" fill="#5A5E6A"/>
</svg>
