<svg width="40" height="41" viewBox="0 0 40 41" fill="none" xmlns="http://www.w3.org/2000/svg">
<path d="M33.75 0.683594H6.25C2.79822 0.683594 0 3.48181 0 6.93359V34.4336C0 37.8854 2.79822 40.6836 6.25 40.6836H33.75C37.2018 40.6836 40 37.8854 40 34.4336V6.93359C40 3.48181 37.2018 0.683594 33.75 0.683594Z" fill="#3A65D5"/>
<path d="M16.5083 13.1836H14.2157C13.3436 13.1836 12.6367 13.8905 12.6367 14.7625C12.6367 22.1748 18.6455 28.1836 26.0578 28.1836C26.9298 28.1836 27.6367 27.4767 27.6367 26.6046V24.312C27.6367 23.6305 27.2218 23.0176 26.589 22.7645L24.3927 21.886C23.8243 21.6586 23.177 21.7612 22.7067 22.1531L22.1393 22.6259C21.4771 23.1777 20.5033 23.1336 19.8938 22.524L18.2963 20.9265C17.6868 20.317 17.6426 19.3432 18.1944 18.681L18.6673 18.1136C19.0592 17.6433 19.1617 16.9961 18.9343 16.4277L18.0558 14.2313C17.8027 13.5985 17.1898 13.1836 16.5083 13.1836Z" fill="white"/>
</svg>
