<svg width="22" height="23" viewBox="0 0 22 23" fill="none" xmlns="http://www.w3.org/2000/svg">
<path fill-rule="evenodd" clip-rule="evenodd" d="M18.7214 12.7197H14.2769C13.0514 12.7197 12.0547 13.7164 12.0547 14.9419V19.3864C12.0547 20.6119 13.0514 21.6086 14.2769 21.6086H18.7214C19.9469 21.6086 20.9436 20.6119 20.9436 19.3864V14.9419C20.9436 13.7164 19.9469 12.7197 18.7214 12.7197V12.7197Z" stroke="#333333" stroke-width="1.5"/>
<path fill-rule="evenodd" clip-rule="evenodd" d="M7.61003 12.7197H3.16558C1.94003 12.7197 0.943359 13.7164 0.943359 14.9419V19.3864C0.943359 20.6119 1.94003 21.6086 3.16558 21.6086H7.61003C8.83558 21.6086 9.83225 20.6119 9.83225 19.3864V14.9419C9.83225 13.7164 8.83558 12.7197 7.61003 12.7197V12.7197Z" stroke="#333333" stroke-width="1.5"/>
<path fill-rule="evenodd" clip-rule="evenodd" d="M18.7214 1.6084H14.2769C13.0514 1.6084 12.0547 2.60507 12.0547 3.83062V8.27507C12.0547 9.50062 13.0514 10.4973 14.2769 10.4973H18.7214C19.9469 10.4973 20.9436 9.50062 20.9436 8.27507V3.83062C20.9436 2.60507 19.9469 1.6084 18.7214 1.6084V1.6084Z" stroke="#333333" stroke-width="1.5"/>
<path fill-rule="evenodd" clip-rule="evenodd" d="M7.61003 1.6084H3.16558C1.94003 1.6084 0.943359 2.60507 0.943359 3.83062V8.27507C0.943359 9.50062 1.94003 10.4973 3.16558 10.4973H7.61003C8.83558 10.4973 9.83225 9.50062 9.83225 8.27507V3.83062C9.83225 2.60507 8.83558 1.6084 7.61003 1.6084V1.6084Z" stroke="#333333" stroke-width="1.5"/>
</svg>
