<svg width="24" height="23" viewBox="0 0 24 23" fill="none" xmlns="http://www.w3.org/2000/svg">
<path d="M11.9958 15.8538C14.2996 15.8538 16.1673 13.9862 16.1673 11.6823C16.1673 9.3784 14.2996 7.51074 11.9958 7.51074C9.69188 7.51074 7.82422 9.3784 7.82422 11.6823C7.82422 13.9862 9.69188 15.8538 11.9958 15.8538Z" stroke="#333333" stroke-width="1.5" stroke-linecap="round" stroke-linejoin="round"/>
<path d="M19.4682 7.44863L19.3996 7.32989C19.2104 7.00241 19.1139 6.62966 19.1202 6.25152L19.1514 4.39641C19.1578 4.0173 18.9579 3.66459 18.6294 3.47527L15.7754 1.83064C15.4477 1.6418 15.0434 1.64519 14.7189 1.83948L13.1347 2.78808C12.8109 2.98195 12.4406 3.08435 12.0632 3.08435H11.9258C11.5476 3.08435 11.1765 2.98151 10.8523 2.78683L9.26074 1.83137C8.93511 1.63588 8.52895 1.63287 8.20046 1.82353L5.35549 3.47472C5.02855 3.66447 4.82989 4.01628 4.83625 4.39424L4.8675 6.25152C4.87386 6.62966 4.77729 7.00241 4.58812 7.32989L4.52045 7.44704C4.33118 7.7747 4.05633 8.0447 3.72536 8.22812L2.10379 9.12674C1.77143 9.31092 1.56555 9.66131 1.56641 10.0413L1.57388 13.3283C1.57473 13.706 1.77972 14.0537 2.10976 14.2373L3.72355 15.135C4.05565 15.3198 4.33097 15.5918 4.51976 15.9216L4.59227 16.0483C4.77877 16.3741 4.87387 16.7442 4.86754 17.1196L4.83632 18.9688C4.82992 19.3479 5.02981 19.7007 5.35836 19.89L8.21235 21.5346C8.54005 21.7234 8.94431 21.72 9.2688 21.5257L10.853 20.5772C11.1768 20.3833 11.5471 20.2809 11.9245 20.2809H12.0619C12.4401 20.2809 12.8112 20.3837 13.1355 20.5784L14.727 21.5339C15.0526 21.7294 15.4588 21.7324 15.7873 21.5417L18.6322 19.8905C18.9592 19.7008 19.1578 19.349 19.1515 18.971L19.1202 17.1137C19.1139 16.7356 19.2104 16.3628 19.3996 16.0353L19.4673 15.9182C19.6565 15.5905 19.9314 15.3205 20.2624 15.1371L21.8839 14.2385C22.2163 14.0543 22.4222 13.7039 22.4213 13.3239L22.4138 10.037C22.413 9.65928 22.208 9.31157 21.8779 9.12797L20.2603 8.22805C19.9306 8.04466 19.6569 7.77529 19.4682 7.44863Z" stroke="#333333" stroke-width="1.5" stroke-linecap="round" stroke-linejoin="round"/>
</svg>
