<svg width="22" height="21" viewBox="0 0 22 21" fill="none" xmlns="http://www.w3.org/2000/svg">
<path d="M10.1216 1.58311C10.5385 0.383754 12.2347 0.383754 12.6516 1.58311L14.2901 6.29708C14.474 6.82617 14.9678 7.18491 15.5278 7.19632L20.5174 7.298C21.7869 7.32387 22.3111 8.93703 21.2992 9.70414L17.3223 12.7192C16.876 13.0576 16.6874 13.6381 16.8496 14.1742L18.2947 18.951C18.6624 20.1664 17.2902 21.1634 16.248 20.4381L12.1515 17.5876C11.6917 17.2676 11.0814 17.2676 10.6216 17.5876L6.52521 20.4381C5.48296 21.1634 4.11073 20.1664 4.47842 18.951L5.92359 14.1742C6.08579 13.6381 5.89719 13.0576 5.45083 12.7192L1.47392 9.70414C0.462096 8.93703 0.986242 7.32387 2.25573 7.298L7.24533 7.19632C7.80535 7.18491 8.29911 6.82617 8.48302 6.29708L10.1216 1.58311Z" fill="#F1D939"/>
</svg>
