<svg width="22" height="21" viewBox="0 0 22 21" fill="none" xmlns="http://www.w3.org/2000/svg">
<path d="M10.3867 2.00905C10.5701 1.48136 11.3164 1.48136 11.4998 2.00905L13.1384 6.72302C13.4253 7.54841 14.1955 8.10805 15.0692 8.12585L20.0588 8.22753C20.6173 8.23891 20.848 8.94866 20.4028 9.28617L16.4259 12.3012C15.7295 12.8292 15.4353 13.7347 15.6884 14.5711L17.1335 19.3479C17.2953 19.8826 16.6915 20.3213 16.233 20.0022L12.1365 17.1516C11.4193 16.6525 10.4672 16.6525 9.7499 17.1516L5.65346 20.0022C5.1949 20.3213 4.59116 19.8826 4.75293 19.3479L6.1981 14.5711C6.45114 13.7347 6.15691 12.8292 5.46058 12.3012L1.48367 9.28617C1.0385 8.94867 1.2691 8.23891 1.82765 8.22753L6.81725 8.12585C7.69091 8.10805 8.46118 7.5484 8.74809 6.72302L10.3867 2.00905Z" stroke="#333333" stroke-width="1.5"/>
</svg>
