<svg width="1140" height="151" viewBox="0 0 1140 151" fill="none" xmlns="http://www.w3.org/2000/svg">
<mask id="mask0_927_1393" style="mask-type:alpha" maskUnits="userSpaceOnUse" x="0" y="0" width="1140" height="151">
<path d="M1 15.6836C1 7.95161 7.26801 1.68359 15 1.68359H1125C1132.73 1.68359 1139 7.95161 1139 15.6836V135.684C1139 143.416 1132.73 149.684 1125 149.684H15C7.26802 149.684 1 143.416 1 135.684V15.6836Z" fill="#0077FF" stroke="#F5F4FB" stroke-width="2"/>
</mask>
<g mask="url(#mask0_927_1393)">
<path d="M97.9804 81.2377C48.5361 81.2377 20.3441 47.4074 19.1875 -8.97654H44.0543C44.8494 32.3717 63.0658 49.8652 77.5232 53.4795V-8.97654H100.872V26.661C115.112 25.143 130.148 8.87837 135.208 -9.04883H158.485C156.587 0.231144 152.796 9.02003 147.348 16.7687C141.9 24.5174 134.913 31.0594 126.823 35.986C135.851 40.4796 143.824 46.836 150.216 54.636C156.608 62.4361 161.274 71.5027 163.906 81.2377H138.244C132.751 64.1057 119.016 50.8049 100.872 48.9977V81.2377H98.0527H97.9804Z" fill="white"/>
<g opacity="0.3">
<path d="M870.129 85.6881L842.696 46.5638C839.252 41.6529 832.48 40.4633 827.569 43.9068L788.445 71.3403C783.534 74.7837 782.344 81.5562 785.788 86.467L813.221 125.591C816.665 130.502 823.437 131.692 828.348 128.248L867.472 100.815C872.383 97.3714 873.573 90.599 870.129 85.6881Z" fill="#3191FF"/>
<path d="M818.297 95.1353C810.051 83.3747 813.395 71.0269 826.614 61.348L830.761 67.2627C821.059 74.3479 819.936 81.5984 821.487 85.6399L836.343 75.2234L840.237 80.7771L831.761 86.7207C834.497 89.8547 840.873 90.7184 845.981 88.9321L849.863 94.4685C847.339 95.5648 844.616 96.1289 841.865 96.1254C839.113 96.122 836.392 95.5512 833.871 94.4486C834.308 97.3454 834.125 100.302 833.336 103.123C832.547 105.945 831.169 108.566 829.292 110.816L825.012 104.712C828.171 100.548 829.044 95.0631 826.448 90.4461L818.779 95.8231L818.309 95.1525L818.297 95.1353Z" fill="white"/>
</g>
<g opacity="0.3">
<path d="M730.699 1.07803L711.188 1.25317C708.739 1.27515 706.772 3.27829 706.794 5.7273L706.969 25.2384C706.991 27.6874 708.994 29.6549 711.443 29.6329L730.954 29.4578C733.403 29.4358 735.371 27.4326 735.349 24.9836L735.173 5.47256C735.151 3.02354 733.148 1.05605 730.699 1.07803Z" fill="#3191FF"/>
<path d="M721.882 20.7018C716.017 20.7544 712.637 16.7716 712.44 10.0847L715.389 10.0583C715.527 14.962 717.707 17.0176 719.426 17.431L719.359 10.0226L722.129 9.99777L722.167 14.225C723.854 14.0298 725.62 12.0845 726.201 9.95264L728.962 9.92786C728.747 11.0306 728.307 12.0772 727.669 13.0021C727.031 13.927 726.209 14.7105 725.255 15.3035C726.33 15.8269 727.283 16.5724 728.049 17.4908C728.816 18.4092 729.379 19.4797 729.702 20.6316L726.658 20.6589C725.988 18.6326 724.345 17.0695 722.19 16.8745L722.225 20.6987L721.89 20.7017L721.882 20.7018Z" fill="white"/>
</g>
<g opacity="0.3">
<path d="M1087.56 104.203L1009.32 66.6994C999.5 61.9919 987.723 66.1365 983.015 75.9566L945.511 154.192C940.804 164.012 944.948 175.789 954.769 180.497L1033 218.001C1042.82 222.708 1054.6 218.564 1059.31 208.744L1096.81 130.508C1101.52 120.688 1097.38 108.911 1087.56 104.203Z" fill="#3191FF"/>
<path d="M1013.94 165.283C990.418 154.01 984.723 131.491 997.028 104.409L1008.86 110.079C999.806 129.927 1004.48 142.401 1010.53 147.416L1024.77 117.71L1035.88 123.034L1027.75 139.984C1034.87 142.509 1045.73 138.201 1052.23 130.828L1063.3 136.135C1060.28 140.117 1056.47 143.432 1052.12 145.876C1047.76 148.319 1042.94 149.838 1037.97 150.336C1041.24 154.532 1043.58 159.373 1044.85 164.541C1046.11 169.708 1046.26 175.084 1045.29 180.315L1033.09 174.464C1034.38 165.063 1030.88 155.605 1022.66 150.608L1015.31 165.943L1013.97 165.3L1013.94 165.283Z" fill="white"/>
</g>
<g opacity="0.3">
<path d="M424.983 72.7073L385.881 45.2421C380.973 41.7947 374.199 42.9788 370.752 47.8868L343.287 86.9889C339.839 91.897 341.024 98.6705 345.932 102.118L385.034 129.583C389.942 133.03 396.715 131.846 400.163 126.938L427.628 87.8362C431.075 82.9281 429.891 76.1547 424.983 72.7073Z" fill="#3191FF"/>
<path d="M379.452 99.215C367.698 90.9591 366.645 78.2096 375.785 64.6129L381.696 68.765C374.981 78.7271 376.391 85.9273 379.224 89.2005L389.652 74.3534L395.203 78.252L389.252 86.7238C392.891 88.7407 399.181 87.3849 403.377 83.9681L408.911 87.8547C406.91 89.7438 404.541 91.2001 401.952 92.1325C399.363 93.0649 396.61 93.4534 393.864 93.2737C395.26 95.8494 396.094 98.6917 396.311 101.613C396.528 104.535 396.124 107.469 395.124 110.223L389.024 105.938C390.578 100.948 389.534 95.4929 385.523 92.0337L380.139 99.6978L379.469 99.2271L379.452 99.215Z" fill="white"/>
</g>
<g opacity="0.3">
<path d="M265.092 40.5426L246.803 47.3415C244.507 48.1949 243.338 50.7477 244.192 53.0433L250.991 71.3323C251.844 73.6279 254.397 74.7971 256.692 73.9437L274.981 67.1448C277.277 66.2914 278.446 63.7386 277.593 61.443L270.794 43.154C269.94 40.8584 267.388 39.6892 265.092 40.5426Z" fill="#3191FF"/>
<path d="M263.473 61.9929C257.976 64.0366 253.443 61.4403 250.983 55.219L253.748 54.1911C255.546 58.7557 258.294 59.9478 260.051 59.7521L257.47 52.8077L260.066 51.8427L261.539 55.8051C263.059 55.0477 264.059 52.6178 263.881 50.4154L266.469 49.4533C266.641 50.5635 266.583 51.6974 266.297 52.7842C266.012 53.8709 265.506 54.8871 264.81 55.7693C265.999 55.8957 267.148 56.2729 268.182 56.876C269.215 57.479 270.108 58.2943 270.803 59.2679L267.95 60.3286C266.631 58.6508 264.554 57.7396 262.462 58.2887L263.795 61.8733L263.481 61.9899L263.473 61.9929Z" fill="white"/>
</g>
<g opacity="0.3">
<path d="M635.749 16.1843L549.422 7.51676C538.587 6.42882 528.921 14.3309 527.833 25.1665L519.165 111.493C518.077 122.329 525.979 131.995 536.815 133.083L623.142 141.75C633.977 142.838 643.643 134.936 644.731 124.1L653.399 37.7738C654.487 26.9382 646.584 17.2722 635.749 16.1843Z" fill="#3191FF"/>
<path d="M587.284 98.6591C561.335 96.0537 548.322 76.8133 550.686 47.161L563.736 48.4713C561.975 70.2136 570.613 80.3544 578.01 83.0131L581.301 50.2349L593.555 51.4653L591.677 70.1685C599.231 70.1222 607.979 62.3785 611.579 53.2366L623.795 54.4632C622.31 59.2335 619.857 63.6463 616.59 67.4259C613.323 71.2055 609.311 74.2707 604.806 76.4299C609.307 79.264 613.156 83.0201 616.1 87.4505C619.044 91.881 621.015 96.8851 621.883 102.133L608.415 100.781C606.435 91.5 599.927 83.7958 590.5 81.8913L588.801 98.8115L587.322 98.6629L587.284 98.6591Z" fill="white"/>
</g>
</g>
</svg>
