<svg width="301" height="223" viewBox="0 0 301 223" fill="none" xmlns="http://www.w3.org/2000/svg">
<path d="M10.2464 53.3873L257.334 3.54627C261.992 2.60678 266.539 5.63151 267.483 10.313L297.522 159.231C298.466 163.913 295.447 168.463 290.79 169.403L43.702 219.244C39.0445 220.183 34.4976 217.159 33.5532 212.477L3.51441 63.5591C2.57009 58.8776 5.58897 54.3267 10.2464 53.3873Z" stroke="#191919" stroke-width="3"/>
<mask id="mask0_1282_1799" style="mask-type:alpha" maskUnits="userSpaceOnUse" x="1" y="1" width="299" height="220">
<path d="M257.038 2.07589L9.94984 51.9169C4.47628 53.021 0.936716 58.3662 2.04402 63.8557L32.0829 212.774C33.1902 218.263 38.525 221.818 43.9986 220.714L291.086 170.873C296.56 169.769 300.099 164.424 298.992 158.935L268.953 10.0164C267.846 4.52688 262.511 0.971776 257.038 2.07589Z" fill="#272A38"/>
</mask>
<g mask="url(#mask0_1282_1799)">
<path d="M83.7409 94.4706L123.385 20.0813C132.534 3.01239 152.142 -4.20323 167.302 3.93232C182.474 12.0657 187.396 32.4958 178.302 49.5536L138.657 123.943C129.511 141.023 109.903 148.238 94.7427 140.103C79.5691 131.959 74.647 111.529 83.7409 94.4706Z" fill="#74C9FA"/>
<path d="M127.753 175.946L167.397 101.557C176.546 84.4879 196.153 77.2724 211.325 85.4057C226.485 93.5415 231.408 113.971 222.314 131.029L182.669 205.418C173.523 222.498 153.915 229.714 138.755 221.579C123.588 213.467 118.659 193.004 127.753 175.946Z" fill="#67DA97"/>
<path d="M53.9394 191.361L55.106 191.126L55.3603 192.386L54.1937 192.622L54.6161 194.716L53.0499 195.032L52.6274 192.938L48.5733 193.755L48.3352 192.807L51.0998 185.63L52.7176 185.304L53.9394 191.361ZM49.9175 192.172L52.3731 191.677L51.5803 187.746L51.5061 187.977L49.9175 192.172ZM61.3434 184.472L59.3147 193.768L57.6713 194.1L59.7717 185.193L54.9184 186.172L54.6642 184.911L61.1674 183.599L61.3434 184.472ZM63.8004 188.006L63.3523 183.159L68.3927 182.142L68.6665 183.499L64.9282 184.254L65.1241 186.555C65.5077 186.218 65.9724 185.994 66.5181 185.884C67.4118 185.703 68.1637 185.85 68.7732 186.324C69.3873 186.796 69.7921 187.517 69.9877 188.487C70.1807 189.444 70.0597 190.262 69.6243 190.942C69.1883 191.617 68.4912 192.052 67.5329 192.245C66.6735 192.418 65.911 192.319 65.2457 191.946C64.5838 191.568 64.1482 190.983 63.9393 190.191L65.4539 189.886C65.6062 190.331 65.8405 190.649 66.1564 190.841C66.4715 191.028 66.8438 191.079 67.2736 190.992C67.7549 190.895 68.0939 190.647 68.2908 190.249C68.4918 189.85 68.5325 189.353 68.4125 188.758C68.2969 188.185 68.0573 187.762 67.6939 187.49C67.3296 187.214 66.8875 187.128 66.3677 187.233C66.0839 187.29 65.8512 187.377 65.6691 187.495C65.4864 187.608 65.3011 187.798 65.1133 188.064L63.8004 188.006ZM74.7902 180.804L75.0523 182.104L74.8591 182.143C73.9851 182.332 73.3334 182.715 72.9039 183.291C72.4743 183.866 72.2971 184.595 72.3722 185.477C72.768 184.845 73.3568 184.451 74.1391 184.293C74.9683 184.126 75.6806 184.287 76.2756 184.777C76.8751 185.266 77.2684 185.973 77.4553 186.9C77.6483 187.857 77.5233 188.689 77.0804 189.397C76.6409 190.101 75.9657 190.544 75.0546 190.728C74.1179 190.917 73.2874 190.723 72.5631 190.147C71.8429 189.57 71.3696 188.72 71.1428 187.595L71.0345 187.058C70.7016 185.408 70.8402 184.034 71.451 182.938C72.0657 181.841 73.1251 181.14 74.6291 180.837L74.7902 180.804ZM74.0142 185.636C73.6705 185.706 73.3743 185.866 73.1254 186.119C72.8809 186.37 72.7248 186.67 72.6567 187.02L72.7532 187.499C72.894 188.197 73.1524 188.723 73.5278 189.078C73.9027 189.429 74.322 189.557 74.7861 189.463C75.2503 189.37 75.5825 189.121 75.7827 188.717C75.9829 188.314 76.0258 187.828 75.911 187.259C75.7963 186.69 75.5653 186.254 75.2183 185.952C74.871 185.65 74.4696 185.545 74.0142 185.636Z" fill="#191919"/>
<path d="M158.749 169.614C158.337 170.275 157.78 170.677 157.08 170.818C156.255 170.985 155.539 170.829 154.933 170.35C154.326 169.867 153.927 169.154 153.737 168.21C153.611 167.589 153.623 167.002 153.77 166.447C153.918 165.893 154.193 165.429 154.596 165.056C155 164.683 155.504 164.436 156.11 164.313C157.055 164.123 157.876 164.325 158.573 164.92C159.27 165.515 159.738 166.405 159.977 167.59L160.066 168.03C160.408 169.727 160.287 171.1 159.702 172.146C159.117 173.192 158.068 173.875 156.553 174.194L156.367 174.231L156.104 172.932L156.33 172.887C157.251 172.687 157.916 172.322 158.323 171.792C158.729 171.257 158.871 170.531 158.749 169.614ZM157.161 169.524C157.475 169.461 157.751 169.311 157.989 169.074C158.228 168.838 158.39 168.545 158.476 168.195L158.352 167.581C158.212 166.887 157.958 166.358 157.589 165.993C157.22 165.628 156.81 165.491 156.359 165.582C155.908 165.673 155.585 165.933 155.39 166.363C155.198 166.787 155.16 167.284 155.274 167.852C155.393 168.443 155.625 168.892 155.969 169.199C156.312 169.506 156.71 169.615 157.161 169.524ZM167.922 167.736C168.195 169.09 168.147 170.162 167.779 170.954C167.415 171.741 166.717 172.238 165.685 172.446C164.671 172.651 163.839 172.471 163.189 171.907C162.542 171.338 162.079 170.397 161.802 169.085L161.473 167.456C161.2 166.103 161.247 165.038 161.613 164.26C161.983 163.481 162.686 162.987 163.722 162.778C164.749 162.571 165.58 162.746 166.216 163.304C166.856 163.861 167.315 164.796 167.593 166.108L167.922 167.736ZM166.001 166.294C165.822 165.411 165.572 164.789 165.249 164.428C164.925 164.063 164.5 163.933 163.976 164.039C163.465 164.142 163.129 164.414 162.967 164.854C162.805 165.291 162.8 165.924 162.954 166.754L163.385 168.887C163.562 169.766 163.817 170.397 164.148 170.778C164.48 171.16 164.908 171.298 165.432 171.192C165.935 171.091 166.267 170.817 166.428 170.372C166.587 169.923 166.588 169.272 166.43 168.421L166.001 166.294ZM174.348 170.564L172.788 170.879L171.264 163.322L169.122 164.575L168.854 163.25L172.243 161.16L172.443 161.12L174.348 170.564ZM182.122 161.784C182.215 162.246 182.18 162.681 182.016 163.09C181.852 163.496 181.587 163.843 181.22 164.132C181.756 164.262 182.195 164.499 182.537 164.842C182.884 165.185 183.107 165.606 183.208 166.106C183.375 166.933 183.228 167.647 182.768 168.247C182.307 168.842 181.612 169.233 180.684 169.421C179.751 169.609 178.955 169.516 178.293 169.143C177.637 168.768 177.225 168.17 177.059 167.346C176.957 166.842 176.999 166.363 177.185 165.908C177.371 165.454 177.682 165.07 178.12 164.758C177.674 164.632 177.297 164.415 176.989 164.105C176.684 163.789 176.485 163.401 176.392 162.94C176.23 162.139 176.36 161.451 176.781 160.877C177.202 160.303 177.85 159.928 178.727 159.751C179.608 159.574 180.353 159.668 180.964 160.033C181.574 160.399 181.96 160.983 182.122 161.784ZM181.626 166.345C181.532 165.879 181.317 165.532 180.981 165.304C180.647 165.071 180.253 165 179.797 165.092C179.342 165.184 179.005 165.4 178.788 165.74C178.574 166.079 178.515 166.483 178.61 166.953C178.703 167.414 178.91 167.756 179.233 167.978C179.559 168.199 179.958 168.262 180.431 168.167C180.904 168.071 181.244 167.863 181.452 167.543C181.665 167.222 181.723 166.823 181.626 166.345ZM180.574 162.157C180.491 161.748 180.305 161.435 180.016 161.22C179.726 161.001 179.381 160.931 178.981 161.012C178.581 161.093 178.291 161.283 178.11 161.584C177.929 161.881 177.882 162.247 177.97 162.682C178.057 163.113 178.242 163.432 178.525 163.64C178.813 163.847 179.156 163.91 179.556 163.829C179.956 163.748 180.246 163.558 180.427 163.257C180.611 162.954 180.661 162.588 180.574 162.157Z" fill="#191919"/>
<path d="M91.8051 183.508C91.7225 183.098 91.784 182.738 91.9897 182.428C92.1989 182.112 92.5182 181.911 92.948 181.824C93.3905 181.735 93.767 181.795 94.078 182.006C94.3881 182.213 94.5856 182.528 94.6708 182.95L94.7191 183.189C94.8008 183.594 94.7389 183.952 94.5331 184.263C94.3309 184.568 94.0084 184.765 93.5659 184.854C93.1406 184.94 92.7721 184.887 92.4604 184.694C92.152 184.496 91.9533 184.198 91.8638 183.799L91.8051 183.508ZM96.4199 182.577C96.3373 182.167 96.3991 181.807 96.6045 181.497C96.8137 181.181 97.133 180.98 97.5628 180.893C98.0053 180.804 98.3821 180.865 98.6928 181.075C99.0029 181.282 99.2005 181.597 99.2856 182.019L99.3339 182.258C99.4156 182.663 99.3537 183.021 99.1479 183.332C98.9458 183.637 98.6234 183.834 98.1807 183.924C97.7554 184.009 97.3869 183.956 97.0752 183.763C96.7671 183.565 96.5681 183.267 96.4786 182.868L96.4199 182.577ZM101.035 181.646C100.952 181.236 101.014 180.876 101.219 180.566C101.428 180.25 101.748 180.049 102.178 179.962C102.62 179.873 102.997 179.934 103.308 180.145C103.618 180.351 103.815 180.666 103.9 181.088L103.949 181.327C104.03 181.732 103.968 182.09 103.763 182.401C103.561 182.706 103.238 182.903 102.796 182.993C102.37 183.078 102.002 183.025 101.69 182.832C101.382 182.634 101.183 182.336 101.094 181.937L101.035 181.646ZM105.65 180.715C105.567 180.305 105.629 179.946 105.834 179.635C106.044 179.319 106.363 179.118 106.792 179.031C107.235 178.942 107.612 179.003 107.923 179.214C108.233 179.42 108.43 179.735 108.516 180.157L108.564 180.396C108.645 180.801 108.583 181.159 108.378 181.47C108.176 181.775 107.853 181.973 107.411 182.062C106.985 182.148 106.616 182.094 106.305 181.901C105.997 181.704 105.798 181.405 105.708 181.006L105.65 180.715Z" fill="#191919"/>
<path d="M123.782 176.783C123.699 176.374 123.761 176.014 123.966 175.703C124.175 175.387 124.495 175.186 124.924 175.099C125.367 175.01 125.744 175.071 126.054 175.282C126.364 175.488 126.562 175.803 126.647 176.225L126.695 176.464C126.777 176.869 126.715 177.227 126.509 177.538C126.307 177.843 125.985 178.041 125.542 178.13C125.117 178.216 124.748 178.162 124.437 177.969C124.129 177.771 123.93 177.473 123.84 177.074L123.782 176.783ZM128.396 175.852C128.314 175.443 128.375 175.083 128.581 174.772C128.79 174.456 129.11 174.255 129.539 174.169C129.982 174.079 130.358 174.14 130.669 174.351C130.979 174.558 131.177 174.872 131.262 175.294L131.31 175.534C131.392 175.939 131.33 176.296 131.124 176.607C130.922 176.912 130.6 177.11 130.157 177.199C129.732 177.285 129.363 177.231 129.051 177.038C128.743 176.84 128.544 176.542 128.455 176.143L128.396 175.852ZM133.011 174.921C132.929 174.512 132.99 174.152 133.196 173.841C133.405 173.525 133.724 173.324 134.154 173.238C134.597 173.148 134.973 173.209 135.284 173.42C135.594 173.627 135.792 173.941 135.877 174.363L135.925 174.603C136.007 175.008 135.945 175.366 135.739 175.676C135.537 175.981 135.215 176.179 134.772 176.268C134.347 176.354 133.978 176.3 133.667 176.108C133.358 175.91 133.16 175.611 133.07 175.212L133.011 174.921ZM137.626 173.99C137.543 173.581 137.605 173.221 137.811 172.91C138.02 172.595 138.339 172.393 138.769 172.307C139.211 172.217 139.588 172.278 139.899 172.489C140.209 172.696 140.407 173.01 140.492 173.433L140.54 173.672C140.622 174.077 140.56 174.435 140.354 174.745C140.152 175.051 139.83 175.248 139.387 175.337C138.962 175.423 138.593 175.369 138.281 175.177C137.973 174.979 137.774 174.68 137.685 174.281L137.626 173.99Z" fill="#191919"/>
<path opacity="0.5" d="M265.382 154.624C272.204 153.248 276.616 146.585 275.236 139.743C273.855 132.901 267.206 128.47 260.384 129.846C253.562 131.222 249.15 137.885 250.53 144.727C251.91 151.569 258.56 156 265.382 154.624Z" fill="#8B8B8B"/>
<path d="M250.359 157.656C257.181 156.28 261.593 149.618 260.212 142.775C258.832 135.933 252.183 131.502 245.361 132.878C238.538 134.255 234.127 140.917 235.507 147.759C236.887 154.601 243.536 159.032 250.359 157.656Z" fill="#ED734B"/>
</g>
</svg>
