<svg width="1530" height="101" viewBox="0 0 1530 101" fill="none" xmlns="http://www.w3.org/2000/svg">
<mask id="mask0_1282_1820" style="mask-type:alpha" maskUnits="userSpaceOnUse" x="0" y="0" width="1530" height="101">
<rect y="0.272461" width="1530" height="100" rx="10" fill="#F8F8F8"/>
</mask>
<g mask="url(#mask0_1282_1820)">
<circle cx="1310.6" cy="107.476" r="58.5444" stroke="#5182FF" stroke-width="3"/>
<circle cx="232.846" cy="15.9189" r="33.8535" stroke="#5182FF"/>
<path d="M-57.3574 77.507L27.3731 -32.445C46.9167 -57.6796 85.6267 -70.0483 114.075 -60.1306C142.545 -50.2172 149.858 -21.7291 130.423 3.48382L45.6916 113.436C26.1516 138.686 -12.5583 151.055 -41.0067 141.137C-69.4793 131.208 -76.793 102.72 -57.3574 77.507Z" fill="#ED734B"/>
<path d="M87.7165 133.703L136.973 65.2982C148.328 49.6095 168.725 45.0871 182.67 55.1805C196.603 65.2748 198.743 86.18 187.444 101.865L138.187 170.27C126.834 185.969 106.436 190.492 92.5028 180.398C78.5599 170.327 76.418 149.388 87.7165 133.703Z" fill="#67DA97"/>
<path d="M1367.3 25.5077L1406.94 -48.8816C1416.09 -65.9505 1435.7 -73.1661 1450.86 -65.0306C1466.03 -56.8972 1470.95 -36.4671 1461.86 -19.4093L1422.22 54.98C1413.07 72.0599 1393.46 79.2756 1378.3 71.1401C1363.13 62.9957 1358.21 42.5656 1367.3 25.5077Z" fill="#74C9FA"/>
<path d="M1411.21 138.274L1478.3 12.374C1493.79 -16.5144 1526.97 -28.7262 1552.65 -14.9611C1578.31 -1.19169 1586.64 33.3846 1571.25 62.2542L1504.15 188.154C1488.67 217.061 1455.49 229.273 1429.83 215.504C1404.16 201.776 1395.82 167.144 1411.21 138.274Z" fill="#A16BF7"/>
</g>
</svg>
