<svg width="208" height="273" viewBox="0 0 208 273" fill="none" xmlns="http://www.w3.org/2000/svg">
<path d="M83.0714 26.8812C82.5406 26.8979 82.0192 27.0256 81.5408 27.256C81.0623 27.4864 80.6374 27.8145 80.2934 28.219C79.9493 28.6236 79.6939 29.0957 79.5434 29.605C79.3928 30.1143 79.3506 30.6494 79.4194 31.176C79.6342 33.5396 79.8489 36.1179 79.8489 38.4771C79.8664 38.8759 79.9651 39.2668 80.1388 39.6262C80.3125 39.9855 80.5576 40.3056 80.8592 40.5671C81.1608 40.8284 81.5125 41.0256 81.8929 41.1465C82.2732 41.2674 82.6743 41.3095 83.0714 41.2702C89.5136 40.8407 92.0905 38.4771 91.8815 33.5396C91.4505 28.3844 88.4428 26.8812 83.0714 26.8812Z" fill="#74C9FA"/>
<path d="M83.9318 47.2915C83.1541 47.3973 82.4415 47.7828 81.9275 48.3759C81.4134 48.969 81.133 49.7291 81.1388 50.514C81.3535 53.5203 81.5683 56.0972 81.783 58.8931C81.8275 59.3494 81.9743 59.7898 82.2125 60.1815C85.2347 56.086 88.8539 52.4668 92.9494 49.4446C91.4505 47.7209 88.4428 46.862 83.9318 47.2915Z" fill="#74C9FA"/>
<path d="M66.5279 14.6282C55.141 18.923 46.1177 26.2241 42.0348 36.1136C39.84 44.2944 40.3682 52.9674 43.5394 60.8215C46.4625 68.2372 51.5508 74.6011 58.1417 79.0843C63.4061 77.76 68.8304 77.1817 74.2557 77.3664C74.9923 74.5123 75.9255 71.7125 77.0487 68.9873L77.6929 67.6988L69.7433 68.7725C69.5551 68.8209 69.3581 68.8231 69.1688 68.7791C68.9796 68.7351 68.8038 68.6461 68.6563 68.5197C68.5088 68.3932 68.3939 68.2331 68.3215 68.0528C68.249 67.8725 68.2211 67.6774 68.2401 67.4841C68.2401 66.8384 68.6696 65.9795 69.3138 65.9795C70.696 65.6396 71.9195 64.8353 72.7795 63.7011C73.6395 62.567 74.0838 61.1718 74.0381 59.7492C73.8233 55.6663 72.104 35.6855 71.6745 31.3879C71.5275 29.9203 70.8632 28.5528 69.8005 27.5299C68.7378 26.507 67.3459 25.8955 65.8737 25.8047C65.0147 25.8047 64.5853 25.1605 64.3691 24.3015C64.3485 23.933 64.471 23.5707 64.7111 23.2904C64.9511 23.01 65.2902 22.8332 65.6575 22.7969L77.0444 22.5822H78.3329L78.1181 18.4993C78.0245 18.0029 78.0353 17.4925 78.1498 17.0005C78.2643 16.5086 78.4799 16.0459 78.7831 15.6418C79.0862 15.2378 79.4702 14.9014 79.9105 14.6539C80.3509 14.4064 80.8379 14.2534 81.3406 14.2045C83.2733 14.2045 84.7765 16.1386 84.9926 18.4993L85.2074 22.5822C92.7275 23.0116 97.2399 27.0945 97.6622 32.8896C97.7889 34.553 97.4789 36.2206 96.7627 37.7272C96.0466 39.2338 94.9492 40.5272 93.5793 41.4792C93.3311 41.6656 93.1375 41.9152 93.0188 42.202C92.9001 42.4888 92.8606 42.8022 92.9045 43.1094C92.9484 43.4167 93.0741 43.7065 93.2683 43.9486C93.4626 44.1907 93.7183 44.3761 94.0088 44.4855C95.4263 44.9392 96.74 45.6691 97.8741 46.6329C99.8162 45.5736 101.825 44.6407 103.887 43.8399C108.279 42.3129 112.814 41.2333 117.423 40.6174C117.208 39.5422 116.778 38.47 116.564 37.611C109.713 17.427 87.3691 7.11379 66.5279 14.6282Z" fill="#74C9FA"/>
<path d="M134.207 105.302C141.078 105.302 144.514 102.939 144.943 98.2118C145.373 93.27 142.367 90.4812 134.846 90.0517C134.021 90.0247 133.218 90.3258 132.614 90.8893C132.01 91.4528 131.654 92.2326 131.624 93.0581C131.408 96.0644 131.194 99.0708 131.194 101.867C131.122 102.298 131.146 102.74 131.266 103.161C131.385 103.582 131.597 103.97 131.885 104.299C132.174 104.628 132.531 104.889 132.933 105.062C133.334 105.236 133.769 105.318 134.207 105.302Z" fill="#A16BF7"/>
<path d="M134.852 83.6024C141.724 84.0319 144.73 82.0978 144.949 76.9412C145.379 71.5699 142.587 69.421 136.789 68.7811C136.237 68.7298 135.681 68.7899 135.153 68.9578C134.625 69.1257 134.136 69.398 133.715 69.7585C133.294 70.1191 132.95 70.5605 132.703 71.0566C132.456 71.5526 132.311 72.0933 132.277 72.6464C132.062 75.2233 131.847 77.8002 131.847 80.1651C131.813 80.5894 131.864 81.0161 131.997 81.4203C132.131 81.8244 132.344 82.1977 132.624 82.5181C132.904 82.8385 133.246 83.0996 133.628 83.2858C134.011 83.472 134.427 83.5797 134.852 83.6024Z" fill="#A16BF7"/>
<path d="M166.22 77.1559C158.919 57.1752 136.57 46.862 115.73 54.3821C110.115 56.4267 105.004 59.6519 100.741 63.8401C96.4787 68.0283 93.164 73.0822 91.0211 78.6605C91.0532 78.9632 90.9771 79.2675 90.8063 79.5195C93.9111 80.1977 96.9346 81.2055 99.8254 82.5258C109.584 86.984 117.378 94.8545 121.74 104.657C122.408 103.794 122.784 102.741 122.814 101.651C123.029 97.3557 124.318 76.5132 124.532 72.0008C124.612 70.4577 124.136 68.937 123.19 67.715C122.244 66.493 120.892 65.6507 119.378 65.341C118.992 65.2584 118.649 65.039 118.412 64.7232C118.175 64.4075 118.061 64.0167 118.09 63.6231C118.096 63.4171 118.149 63.2153 118.245 63.0326C118.34 62.8498 118.475 62.6907 118.64 62.5671C118.805 62.4434 118.995 62.3584 119.197 62.3181C119.399 62.2779 119.608 62.2836 119.808 62.3346L133.121 64.0526L133.336 59.9711C133.551 57.6075 135.27 55.6763 137.201 56.1058C139.134 56.322 140.637 58.6827 140.424 61.0476L140.209 65.1306C147.94 66.6337 152.026 71.5727 151.596 77.5854C151.508 79.356 150.943 81.0699 149.96 82.5452C148.977 84.0206 147.613 85.2026 146.013 85.966C145.721 86.1215 145.476 86.3536 145.306 86.6375C145.135 86.9213 145.045 87.2461 145.045 87.5772C145.045 87.9083 145.135 88.2331 145.306 88.517C145.476 88.8008 145.721 89.0329 146.013 89.1885C150.524 91.552 152.243 94.9893 152.026 99.0665C151.596 104.439 147.301 110.025 137.201 110.67L136.985 115.181C136.771 117.328 135.267 119.263 133.333 119.263C132.84 119.242 132.358 119.114 131.918 118.889C131.479 118.664 131.093 118.347 130.787 117.96C130.482 117.572 130.263 117.123 130.146 116.644C130.029 116.164 130.017 115.665 130.111 115.181L130.325 110.67H123.883C125.204 114.979 125.785 119.48 125.601 123.983C136.383 121.505 147.283 119.569 158.259 118.183C167.939 106.591 171.376 91.1211 166.22 77.1559Z" fill="#A16BF7"/>
<path d="M83.0714 110.03C79.8489 105.947 76.4117 106.164 71.6845 109.384C71.235 109.703 70.858 110.113 70.5784 110.588C70.2987 111.063 70.1227 111.592 70.0619 112.14C70.001 112.688 70.0567 113.242 70.2254 113.767C70.394 114.292 70.6717 114.775 71.0403 115.185C72.5449 117.119 74.2628 119.268 75.7646 121.197C76.2944 121.857 77.0552 122.291 77.8928 122.41C78.7305 122.53 79.5822 122.327 80.2755 121.842C85.435 117.548 86.2954 114.111 83.0714 110.03Z" fill="#67DA97"/>
<path d="M97.2528 125.72C94.2464 121.855 90.1621 121.638 84.3684 126.366C83.7354 126.921 83.3384 127.697 83.2586 128.536C83.1788 129.374 83.4222 130.211 83.939 130.876C84.5832 131.735 85.2274 132.381 85.8716 133.24C90.1664 132.166 94.4612 130.876 98.9779 129.804C98.7795 128.313 98.1837 126.902 97.2528 125.72Z" fill="#67DA97"/>
<path d="M117.228 114.111C109.927 94.1303 87.5838 83.8171 66.7427 91.3373C45.4721 99.0679 34.2999 122.49 41.6053 143.331C42.0348 143.976 42.2495 144.836 42.679 145.479C51.6981 142.902 63.9496 139.248 77.2706 135.601C76.4117 134.742 67.3926 123.146 64.5953 119.701C63.5735 118.541 62.189 117.761 60.6672 117.488C59.1454 117.215 57.5761 117.465 56.2147 118.198C55.8654 118.399 55.4553 118.466 55.0604 118.387C54.6655 118.308 54.3126 118.088 54.0673 117.769C53.9274 117.62 53.8209 117.442 53.7552 117.249C53.6895 117.055 53.666 116.85 53.6864 116.646C53.7067 116.443 53.7704 116.246 53.8732 116.069C53.9759 115.893 54.1154 115.74 54.2821 115.621L65.2395 107.891L62.6626 104.668C61.158 102.734 61.158 100.156 62.8774 99.0851C63.8289 98.5987 64.9272 98.4833 65.959 98.7614C66.9907 99.0394 67.8823 99.6911 68.4606 100.59L71.0375 103.812C77.9091 99.7307 84.1437 100.59 87.7957 105.53C88.8815 106.905 89.5911 108.538 89.8549 110.27C90.1187 112.002 89.9276 113.772 89.3003 115.408C89.1859 115.717 89.1587 116.051 89.2214 116.375C89.2841 116.698 89.4345 116.998 89.6561 117.242C89.8777 117.486 90.1619 117.664 90.4779 117.757C90.7938 117.85 91.1293 117.855 91.4477 117.77C93.4169 117.118 95.5373 117.077 97.5302 117.653C99.5232 118.228 101.295 119.393 102.614 120.994C104.185 123.02 105.019 125.52 104.978 128.083C109.702 126.795 114.426 125.72 119.158 124.648C119.144 121.049 118.491 117.481 117.228 114.111Z" fill="#67DA97"/>
<path d="M205.968 220.035L200.385 197.045C202.344 196.319 204.057 195.052 205.327 193.393C205.949 192.494 206.384 191.479 206.605 190.408C206.827 189.337 206.83 188.233 206.615 187.161L198.665 154.504C198.02 151.71 194.8 149.35 188.996 149.993L183.624 127.867C180.617 115.621 179.329 115.412 166.865 116.701H166.22C169.55 112.901 172.3 108.629 174.38 104.024C179.125 93.2759 179.51 81.1051 175.455 70.0781C173.471 64.6313 170.413 59.6381 166.464 55.394C162.515 51.15 157.755 47.7415 152.465 45.3703C148.696 43.7057 144.723 42.5503 140.649 41.9344C135.514 40.7041 130.244 40.1269 124.964 40.2165C124.716 36.4003 123.92 32.6396 122.601 29.0501C120.671 23.8081 117.723 18.9999 113.926 14.903C110.129 10.8061 105.559 7.50145 100.478 5.17971C96.8579 3.51813 93.0264 2.36204 89.0913 1.74389C77.5631 -1.02895 65.4812 -0.432676 54.2821 3.4618C42.799 7.76851 33.4642 16.4089 28.2843 27.5255C25.8309 32.8204 24.4711 38.556 24.2864 44.3888C24.1016 50.2217 25.0958 56.0318 27.2092 61.4714C30.645 70.061 37.7386 77.5854 47.1914 82.742C37.2723 87.7147 29.3232 95.8913 24.6324 105.947C22.9702 109.567 21.814 113.398 21.1965 117.334C3.36174 123.573 -1.36538 133.88 0.352531 141.611L27.4254 254.41C28.2194 257.327 29.6008 260.052 31.485 262.416C33.3692 264.781 35.7164 266.735 38.3828 268.161C43.4162 270.796 49.0307 272.126 54.7116 272.029C60.9549 271.977 67.1392 270.814 72.9744 268.593C100.905 258.924 160.634 244.529 189.21 240.661C198.448 239.373 202.953 237.655 205.109 234.431C208.332 230.777 207.258 225.621 205.968 220.035ZM203.391 188.021C203.52 188.656 203.509 189.311 203.361 189.941C203.213 190.572 202.93 191.163 202.532 191.673L201.888 192.318C200.27 193.76 198.242 194.66 196.087 194.894C195.441 194.894 194.799 195.109 194.153 195.109C184.395 196.763 174.772 199.133 165.362 202.2C163.215 203.059 162.785 202.844 162.569 202.844C161.895 202.17 154.839 172.042 154.839 171.906C157.572 169.173 181.954 164.406 185.563 163.746L188.786 163.1C189.628 162.87 190.492 162.726 191.363 162.671C192.545 162.442 193.697 162.082 194.799 161.597C195.595 161.221 196.321 160.713 196.946 160.092L203.391 188.021ZM31.2921 29.0286C33.5837 23.8705 36.8978 19.2308 41.0339 15.3902C45.1701 11.5497 50.0422 8.58796 55.3558 6.68432C59.5789 5.12876 63.9832 4.11849 68.462 3.67797C68.0325 3.89271 67.8178 3.89271 67.3883 4.10745C55.9056 8.41469 46.5709 17.0549 41.3906 28.1711C38.9369 33.4663 37.577 39.2021 37.3923 45.0352C37.2076 50.8683 38.2018 56.6787 40.3155 62.1185C43.1207 69.3612 47.8814 75.6831 54.0673 80.3799C53.1136 80.6762 52.1806 81.0353 51.2743 81.455C41.3963 76.5132 33.8704 69.0001 30.4332 60.6139C28.442 55.5626 27.4917 50.1612 27.6393 44.7336C27.7869 39.306 29.0293 33.9642 31.2921 29.0286ZM161.281 117.119C160.422 117.119 159.347 117.334 158.488 117.334C148.819 118.622 137.647 120.558 125.829 123.134C125.906 118.634 125.328 114.147 124.111 109.813C123.896 108.955 123.465 107.881 123.252 107.022C122.801 106.129 122.442 105.192 122.178 104.227C117.816 94.4247 110.021 86.5545 100.261 82.0978C97.3578 80.8082 94.3375 79.8014 91.2415 79.0915C91.2094 78.7888 91.2855 78.4845 91.4563 78.2325C92.097 75.4214 93.0337 72.6861 94.2507 70.0724C96.6627 64.6868 100.13 59.8394 104.448 55.8168C108.765 51.7943 113.845 48.6783 119.388 46.653C124.068 44.9495 129.01 44.0774 133.99 44.0761C142.397 43.9879 150.625 46.5005 157.549 51.2698C164.472 56.0391 169.752 62.8319 172.665 70.7181C175.426 78.7287 175.821 87.3652 173.801 95.5942C171.782 103.823 167.435 111.296 161.279 117.119H161.281ZM119.599 124.849C114.874 125.923 110.15 126.997 105.419 128.285C103.271 128.715 101.124 129.36 99.1869 129.79C94.6759 130.864 90.3783 132.153 86.0821 133.226C83.289 134.085 80.4989 134.73 77.7015 135.589C64.3877 139.243 52.1347 142.89 43.1099 145.467C42.6805 144.823 42.4657 143.963 42.0362 143.32L40.7478 140.743C38.7032 135.481 37.7262 129.864 37.8737 124.221C38.0211 118.577 39.2901 113.019 41.6068 107.871C44.02 102.487 47.4877 97.6422 51.805 93.6215C56.1222 89.6008 61.2015 86.4861 66.7427 84.4614C71.4254 82.7569 76.3702 81.8848 81.3535 81.8845C89.7599 81.7964 97.988 84.3091 104.911 89.0784C111.834 93.8477 117.114 100.64 120.027 108.526C121.82 113.557 122.693 118.87 122.603 124.211C121.531 124.431 120.456 124.639 119.597 124.861L119.599 124.849ZM118.087 44.0689C112.117 46.2255 106.643 49.5629 101.992 53.8818C97.3409 58.2007 93.6077 63.4126 91.0154 69.2063C89.6536 72.3262 88.5751 75.5622 87.7928 78.8753C84.4841 78.0441 81.1017 77.5401 77.6944 77.3707C78.3618 74.8736 79.2234 72.4324 80.2712 70.0695C82.6836 64.6839 86.1512 59.8366 90.469 55.8141C94.7868 51.7916 99.8673 48.6755 105.41 46.6501C110.103 44.8988 115.018 43.814 120.012 43.4276L118.087 44.0689ZM117.872 40.6331C113.263 41.2492 108.728 42.3288 104.336 43.8556C102.274 44.6558 100.265 45.5888 98.3236 46.6487C96.5126 47.5663 94.7878 48.6448 93.1699 49.8712C89.0253 52.8359 85.3977 56.4635 82.4329 60.6082C80.7977 62.9162 79.3609 65.3586 78.1382 67.9093C77.9225 68.3388 77.7073 68.7682 77.4925 69.1977C76.2747 71.8868 75.3386 74.6948 74.6995 77.5768C69.2786 77.4991 63.8681 78.0759 58.5855 79.2947C51.8346 74.9869 46.7001 68.5651 43.9832 61.0319C40.9186 53.1541 40.3925 44.5155 42.4786 36.324C43.0403 34.0302 43.8322 31.799 44.8422 29.6643C47.1333 24.5091 50.4457 19.8718 54.5791 16.0326C58.7126 12.1934 63.5814 9.23196 68.8915 7.3271C78.6654 3.61141 89.5138 3.92239 99.0589 8.19188C108.604 12.4614 116.067 20.341 119.812 30.1038C121.039 33.413 121.762 36.8874 121.959 40.4112C120.596 40.2636 119.217 40.3381 117.878 40.6317L117.872 40.6331ZM67.6031 80.8094L65.669 81.4536C59.6991 83.6096 54.2249 86.9467 49.5736 91.2657C44.9224 95.5847 41.1893 100.797 38.5975 106.591C36.0375 112.123 34.6226 118.115 34.4378 124.207C34.2531 130.3 35.3023 136.366 37.5224 142.043C38.1507 143.587 38.8677 145.093 39.6698 146.554C37.0929 147.198 34.9456 147.842 33.01 148.488C32.5806 148.703 32.1511 148.703 31.7216 148.917C29.7156 146.352 28.0542 143.535 26.7797 140.538C24.7355 135.276 23.7587 129.659 23.9062 124.016C24.0537 118.372 25.3225 112.815 27.6387 107.666C30.0508 102.28 33.5183 97.4328 37.8361 93.4102C42.154 89.3877 47.2346 86.2717 52.7775 84.2466C57.5208 82.3697 62.5177 81.2112 67.6031 80.8094ZM20.9789 120.987C20.7642 123.776 20.7642 126.577 20.9789 129.366C17.4987 130.9 14.4133 133.207 11.9566 136.11C9.4998 139.014 7.73607 142.438 6.79899 146.124C5.29439 144.617 -0.935901 128.076 20.9789 120.987ZM203.175 232.495C201.672 234.859 197.374 236.361 189.432 237.437C160.856 241.302 100.697 255.915 72.5521 265.584C60.0972 269.878 48.7032 269.878 40.3226 265.368C35.3822 262.574 31.9435 258.496 30.8741 253.772L5.7253 149.562C6.15478 151.066 10.879 152.139 11.9556 152.568C14.8965 153.348 17.9327 153.71 20.9746 153.643C25.2881 153.612 29.5684 152.887 33.6514 151.496C36.2283 150.852 39.4522 149.778 42.8895 148.703C71.036 140.543 129.477 123.351 163.43 120.127C166.865 119.697 173.737 117.763 176.965 119.912C178.254 120.771 179.113 123.134 180.401 128.501L187.921 159.869C176.748 162.017 165.576 163.734 155.048 168.029C151.396 169.534 150.966 170.393 151.825 174.471L158.267 201.113C158.358 202.004 158.634 202.865 159.078 203.642C159.522 204.419 160.123 205.094 160.844 205.624C161.462 205.869 162.115 206.014 162.778 206.054C165.571 206.054 168.361 204.551 171.157 203.69C174.164 202.831 177.17 201.972 180.176 201.328C185.548 200.04 191.134 198.751 196.72 197.892H197.364L202.947 220.667C204.25 226.694 204.68 230.348 203.175 232.495Z" fill="#191919"/>
<path d="M183.624 180.501C183.377 179.446 182.904 178.457 182.237 177.604C181.569 176.75 180.723 176.053 179.758 175.559C177.704 174.47 175.321 174.174 173.062 174.729C170.804 175.283 168.829 176.649 167.513 178.566C166.883 179.418 166.458 180.404 166.272 181.446C166.085 182.489 166.142 183.561 166.437 184.578C167.513 189.091 172.669 191.45 176.965 190.381C181.045 189.31 184.697 185.012 183.624 180.501Z" fill="#191919"/>
<path d="M172.666 153.215C172.795 153.604 173.065 153.93 173.423 154.129C173.781 154.327 174.201 154.385 174.599 154.289C174.798 154.236 174.985 154.143 175.148 154.016C175.311 153.889 175.447 153.731 175.547 153.55C175.648 153.37 175.71 153.171 175.732 152.965C175.754 152.76 175.734 152.552 175.674 152.355C174.71 146.633 172.976 141.068 170.52 135.811C169.447 133.877 166.655 135.596 167.727 137.529C170.111 142.497 171.774 147.778 172.666 153.215Z" fill="#191919"/>
<path d="M155.908 130.874C148.817 131.303 142.156 133.451 135.282 135.168C133.348 135.598 134.207 138.82 136.141 138.175C142.583 136.457 149.247 134.309 155.908 133.88C156.135 133.883 156.359 133.841 156.569 133.756C156.779 133.671 156.97 133.544 157.13 133.384C157.29 133.224 157.417 133.033 157.502 132.823C157.587 132.613 157.629 132.389 157.626 132.162C157.501 131.8 157.27 131.485 156.964 131.255C156.658 131.025 156.29 130.893 155.908 130.874Z" fill="#191919"/>
<path d="M99.1897 149.132C106.061 147.198 112.725 145.267 119.601 143.331C121.535 142.687 120.675 139.679 118.742 140.325C112.081 142.259 105.207 144.19 98.3308 146.126C96.3924 146.554 97.2528 149.562 99.1897 149.132Z" fill="#191919"/>
<path d="M60.5124 160.734C66.9546 158.586 73.4039 156.868 79.8489 154.933C81.783 154.289 80.924 151.281 78.99 151.927C72.5478 153.861 66.0984 155.58 59.6534 157.727C59.4449 157.774 59.248 157.862 59.0748 157.987C58.9017 158.112 58.756 158.272 58.6467 158.455C58.5374 158.639 58.4668 158.843 58.4392 159.054C58.4116 159.266 58.4277 159.481 58.4864 159.687C58.545 159.892 58.6451 160.083 58.7804 160.249C58.9158 160.414 59.0835 160.55 59.2732 160.648C59.463 160.746 59.6708 160.804 59.8839 160.819C60.097 160.834 60.3109 160.805 60.5124 160.734Z" fill="#191919"/>
<path d="M40.3155 162.883C36.8618 163.714 33.3373 164.218 29.789 164.387C25.9713 164.637 22.1376 164.348 18.4006 163.528C16.468 163.099 15.6076 166.105 17.5417 166.535C22.3383 167.575 27.2671 167.864 32.1525 167.394C35.1902 167.102 38.2038 166.599 41.1716 165.889C43.3247 165.676 42.4643 162.453 40.3155 162.883Z" fill="#191919"/>
<path d="M187.705 208.646C188.337 211.051 188.839 213.489 189.21 215.947C189.488 220.081 188.299 221.183 187.705 221.748C186.328 222.61 184.796 223.194 183.194 223.466C180.937 224.012 178.639 224.371 176.323 224.54C175.867 224.54 175.43 224.721 175.108 225.043C174.786 225.365 174.605 225.802 174.605 226.258C174.605 226.713 174.786 227.15 175.108 227.473C175.43 227.795 175.867 227.976 176.323 227.976C180.405 227.546 184.702 227.117 188.355 225.399C191.578 223.681 192.65 220.675 192.65 217.239C192.514 214.025 191.936 210.846 190.932 207.79C190.498 205.853 187.276 206.714 187.705 208.646Z" fill="#191919"/>
<path d="M159.131 226.909C152.853 227.597 146.615 228.6 140.438 229.916C140.049 230.044 139.723 230.315 139.524 230.673C139.325 231.031 139.267 231.451 139.363 231.85C139.416 232.049 139.509 232.236 139.636 232.398C139.763 232.561 139.922 232.697 140.102 232.797C140.283 232.897 140.482 232.96 140.687 232.982C140.892 233.003 141.1 232.984 141.297 232.923C147.188 231.679 153.141 230.747 159.131 230.13C159.357 230.134 159.582 230.091 159.792 230.006C160.002 229.921 160.192 229.795 160.353 229.634C160.513 229.474 160.639 229.284 160.724 229.074C160.81 228.864 160.852 228.639 160.848 228.412C160.808 227.99 160.607 227.599 160.288 227.32C159.969 227.04 159.555 226.893 159.131 226.909Z" fill="#191919"/>
<path d="M123.68 234C118.097 235.503 112.292 237.222 106.706 238.942C104.773 239.586 105.632 242.594 107.565 241.948C113.148 240.23 118.731 238.512 124.538 237.006C126.473 236.578 125.613 233.356 123.68 234Z" fill="#191919"/>
<path d="M89.5179 244.313C82.9569 246.456 76.2868 248.249 69.5357 249.684C69.1471 249.813 68.8211 250.084 68.6222 250.442C68.4234 250.799 68.3662 251.219 68.462 251.617C68.5152 251.817 68.608 252.003 68.7349 252.166C68.8618 252.329 69.0202 252.465 69.2008 252.565C69.3813 252.666 69.5802 252.729 69.7855 252.75C69.9909 252.772 70.1986 252.752 70.3961 252.692C77.158 251.304 83.8303 249.51 90.3769 247.321C90.5963 247.285 90.8056 247.203 90.9912 247.081C91.1767 246.959 91.3343 246.798 91.4534 246.611C91.5725 246.423 91.6506 246.212 91.6824 245.992C91.7143 245.772 91.6992 245.548 91.6381 245.334C91.5771 245.12 91.4715 244.922 91.3283 244.752C91.1851 244.582 91.0075 244.444 90.8072 244.348C90.6069 244.251 90.3885 244.198 90.1662 244.192C89.944 244.186 89.7231 244.228 89.5179 244.313Z" fill="#191919"/>
<path d="M52.1333 251.402C49.1651 252.056 46.0852 252.009 43.1387 251.263C40.1922 250.517 37.4603 249.095 35.1603 247.108C34.8469 246.794 34.4218 246.618 33.9785 246.618C33.5353 246.618 33.1102 246.794 32.7967 247.108C32.4833 247.421 32.3072 247.846 32.3072 248.289C32.3072 248.733 32.4833 249.158 32.7967 249.471C35.4994 251.859 38.7419 253.555 42.2453 254.413C45.7848 255.164 49.4426 255.164 52.9822 254.413C53.371 254.284 53.6972 254.013 53.8963 253.655C54.0953 253.297 54.1528 252.877 54.0573 252.479C54.0674 251.617 52.9922 251.188 52.1333 251.402Z" fill="#191919"/>
</svg>
