<svg width="514" height="194" viewBox="0 0 514 194" fill="none" xmlns="http://www.w3.org/2000/svg">
<path d="M0.203125 157.818V122.727L76.4759 2.54546H107.658V50.1818H89.5668L44.9304 120.909V122.364H155.385V157.818H0.203125ZM90.1122 188.727V147.091L91.0213 131.727V2.54546H133.112V188.727H90.1122Z" fill="#F8F8F8"/>
<path d="M255.976 193.273C239.733 193.273 225.733 189.424 213.976 181.727C202.218 173.97 193.158 162.848 186.794 148.364C180.43 133.818 177.279 116.333 177.339 95.9091C177.4 75.4848 180.582 58.1515 186.885 43.9091C193.249 29.6061 202.279 18.7273 213.976 11.2727C225.733 3.75758 239.733 0 255.976 0C272.218 0 286.218 3.75758 297.976 11.2727C309.794 18.7273 318.885 29.6061 325.249 43.9091C331.612 58.2121 334.764 75.5455 334.703 95.9091C334.703 116.394 331.521 133.909 325.158 148.455C318.794 163 309.733 174.121 297.976 181.818C286.279 189.455 272.279 193.273 255.976 193.273ZM255.976 156.455C265.673 156.455 273.521 151.515 279.521 141.636C285.521 131.697 288.491 116.455 288.43 95.9091C288.43 82.4546 287.067 71.3636 284.339 62.6364C281.612 53.8485 277.824 47.303 272.976 43C268.127 38.697 262.461 36.5455 255.976 36.5455C246.339 36.5455 238.552 41.4242 232.612 51.1818C226.673 60.8788 223.673 75.7879 223.612 95.9091C223.552 109.545 224.855 120.848 227.521 129.818C230.249 138.788 234.067 145.485 238.976 149.909C243.885 154.273 249.552 156.455 255.976 156.455Z" fill="#F8F8F8"/>
<path d="M358.203 157.818V122.727L434.476 2.54546H465.658V50.1818H447.567L402.93 120.909V122.364H513.385V157.818H358.203ZM448.112 188.727V147.091L449.021 131.727V2.54546H491.112V188.727H448.112Z" fill="#F8F8F8"/>
<mask id="mask0_1296_2300" style="mask-type:alpha" maskUnits="userSpaceOnUse" x="0" y="0" width="514" height="194">
<path d="M0.203125 157.818V122.727L76.4759 2.54546H107.658V50.1818H89.5668L44.9304 120.909V122.364H155.385V157.818H0.203125ZM90.1122 188.727V147.091L91.0213 131.727V2.54546H133.112V188.727H90.1122Z" fill="#333333"/>
<path d="M255.976 193.273C239.733 193.273 225.733 189.424 213.976 181.727C202.218 173.97 193.158 162.848 186.794 148.364C180.43 133.818 177.279 116.333 177.339 95.9091C177.4 75.4848 180.582 58.1515 186.885 43.9091C193.249 29.6061 202.279 18.7273 213.976 11.2727C225.733 3.75758 239.733 0 255.976 0C272.218 0 286.218 3.75758 297.976 11.2727C309.794 18.7273 318.885 29.6061 325.249 43.9091C331.612 58.2121 334.764 75.5455 334.703 95.9091C334.703 116.394 331.521 133.909 325.158 148.455C318.794 163 309.733 174.121 297.976 181.818C286.279 189.455 272.279 193.273 255.976 193.273ZM255.976 156.455C265.673 156.455 273.521 151.515 279.521 141.636C285.521 131.697 288.491 116.455 288.43 95.9091C288.43 82.4546 287.067 71.3636 284.339 62.6364C281.612 53.8485 277.824 47.303 272.976 43C268.127 38.697 262.461 36.5455 255.976 36.5455C246.339 36.5455 238.552 41.4242 232.612 51.1818C226.673 60.8788 223.673 75.7879 223.612 95.9091C223.552 109.545 224.855 120.848 227.521 129.818C230.249 138.788 234.067 145.485 238.976 149.909C243.885 154.273 249.552 156.455 255.976 156.455Z" fill="#333333"/>
<path d="M358.203 157.818V122.727L434.476 2.54546H465.658V50.1818H447.567L402.93 120.909V122.364H513.385V157.818H358.203ZM448.112 188.727V147.091L449.021 131.727V2.54546H491.112V188.727H448.112Z" fill="#333333"/>
</mask>
<g mask="url(#mask0_1296_2300)">
<rect x="38.2969" y="-139.323" width="248.522" height="248.522" rx="49.3951" transform="rotate(-15 38.2969 -139.323)" fill="#74C9FA"/>
<rect x="159.59" y="-62.2373" width="248.522" height="248.522" rx="49.3951" transform="rotate(-15 159.59 -62.2373)" fill="#A16BF7"/>
<rect x="9.55078" y="74.1172" width="248.522" height="248.522" rx="49.3951" transform="rotate(-15 9.55078 74.1172)" fill="#67DA97"/>
<rect x="390.23" y="90.001" width="103.523" height="103.523" rx="49.3951" transform="rotate(-15 390.23 90.001)" fill="#ED734B"/>
</g>
</svg>
