<svg width="675" height="156" viewBox="0 0 675 156" fill="none" xmlns="http://www.w3.org/2000/svg">
<mask id="mask0_1236_2001" style="mask-type:alpha" maskUnits="userSpaceOnUse" x="5" y="29" width="666" height="122">
<path d="M96.1818 77.7436C96.1818 88.1072 94.1667 96.8497 90.1364 103.971C86.1061 111.062 80.6667 116.441 73.8182 120.107C66.9697 123.744 59.3333 125.562 50.9091 125.562C42.4242 125.562 34.7576 123.728 27.9091 120.062C21.0909 116.365 15.6667 110.971 11.6364 103.88C7.63636 96.7588 5.63636 88.0466 5.63636 77.7436C5.63636 67.38 7.63636 58.6527 11.6364 51.5618C15.6667 44.4406 21.0909 39.0618 27.9091 35.4254C34.7576 31.7588 42.4242 29.9254 50.9091 29.9254C59.3333 29.9254 66.9697 31.7588 73.8182 35.4254C80.6667 39.0618 86.1061 44.4406 90.1364 51.5618C94.1667 58.6527 96.1818 67.38 96.1818 77.7436ZM70.1818 77.7436C70.1818 72.1678 69.4394 67.4709 67.9545 63.6527C66.5 59.8042 64.3333 56.8951 61.4545 54.9254C58.6061 52.9254 55.0909 51.9254 50.9091 51.9254C46.7273 51.9254 43.197 52.9254 40.3182 54.9254C37.4697 56.8951 35.303 59.8042 33.8182 63.6527C32.3636 67.4709 31.6364 72.1678 31.6364 77.7436C31.6364 83.3194 32.3636 88.0315 33.8182 91.88C35.303 95.6982 37.4697 98.6072 40.3182 100.607C43.197 102.577 46.7273 103.562 50.9091 103.562C55.0909 103.562 58.6061 102.577 61.4545 100.607C64.3333 98.6072 66.5 95.6982 67.9545 91.88C69.4394 88.0315 70.1818 83.3194 70.1818 77.7436ZM133.739 124.289V54.4709H198.83V124.289H175.193V73.1982H157.011V124.289H133.739ZM211.614 150.471V54.4709H236.523V66.6527H237.068C237.977 64.2891 239.311 62.1224 241.068 60.1527C242.826 58.1527 245.008 56.5618 247.614 55.38C250.22 54.1678 253.25 53.5618 256.705 53.5618C261.311 53.5618 265.689 54.7891 269.841 57.2436C274.023 59.6982 277.417 63.5618 280.023 68.8345C282.659 74.1072 283.977 80.9557 283.977 89.38C283.977 97.4406 282.72 104.122 280.205 109.425C277.72 114.728 274.386 118.683 270.205 121.289C266.053 123.895 261.492 125.198 256.523 125.198C253.25 125.198 250.326 124.668 247.75 123.607C245.205 122.516 243.023 121.047 241.205 119.198C239.417 117.319 238.038 115.198 237.068 112.835H236.705V150.471H211.614ZM236.159 89.38C236.159 92.7739 236.598 95.7133 237.477 98.1982C238.386 100.653 239.659 102.562 241.295 103.925C242.962 105.259 244.947 105.925 247.25 105.925C249.553 105.925 251.508 105.274 253.114 103.971C254.75 102.638 255.992 100.744 256.841 98.2891C257.72 95.8042 258.159 92.8345 258.159 89.38C258.159 85.9254 257.72 82.9709 256.841 80.5163C255.992 78.0315 254.75 76.1375 253.114 74.8345C251.508 73.5012 249.553 72.8345 247.25 72.8345C244.947 72.8345 242.962 73.5012 241.295 74.8345C239.659 76.1375 238.386 78.0315 237.477 80.5163C236.598 82.9709 236.159 85.9254 236.159 89.38ZM328.125 125.562C320.549 125.562 314.064 124.062 308.67 121.062C303.277 118.031 299.14 113.819 296.261 108.425C293.383 103.001 291.943 96.7133 291.943 89.5618C291.943 82.4103 293.383 76.1375 296.261 70.7436C299.14 65.3194 303.277 61.1072 308.67 58.1072C314.064 55.0769 320.549 53.5618 328.125 53.5618C335.701 53.5618 342.186 55.0769 347.58 58.1072C352.973 61.1072 357.11 65.3194 359.989 70.7436C362.867 76.1375 364.307 82.4103 364.307 89.5618C364.307 96.7133 362.867 103.001 359.989 108.425C357.11 113.819 352.973 118.031 347.58 121.062C342.186 124.062 335.701 125.562 328.125 125.562ZM328.307 107.016C330.428 107.016 332.261 106.304 333.807 104.88C335.352 103.456 336.549 101.425 337.398 98.7891C338.246 96.1527 338.67 93.0163 338.67 89.38C338.67 85.7133 338.246 82.5769 337.398 79.9709C336.549 77.3345 335.352 75.3042 333.807 73.88C332.261 72.4557 330.428 71.7436 328.307 71.7436C326.064 71.7436 324.14 72.4557 322.534 73.88C320.928 75.3042 319.701 77.3345 318.852 79.9709C318.004 82.5769 317.58 85.7133 317.58 89.38C317.58 93.0163 318.004 96.1527 318.852 98.7891C319.701 101.425 320.928 103.456 322.534 104.88C324.14 106.304 326.064 107.016 328.307 107.016ZM407.943 125.562C400.489 125.562 394.064 124.138 388.67 121.289C383.307 118.41 379.17 114.289 376.261 108.925C373.383 103.531 371.943 97.0769 371.943 89.5618C371.943 82.3497 373.398 76.0466 376.307 70.6527C379.216 65.2588 383.322 61.0618 388.625 58.0618C393.928 55.0618 400.186 53.5618 407.398 53.5618C412.67 53.5618 417.443 54.38 421.716 56.0163C425.989 57.6527 429.64 60.0315 432.67 63.1527C435.701 66.2436 438.034 70.0012 439.67 74.4254C441.307 78.8497 442.125 83.8345 442.125 89.38V95.1982H379.761V81.38H419.034C419.004 79.38 418.489 77.6224 417.489 76.1072C416.519 74.5618 415.201 73.3648 413.534 72.5163C411.898 71.6375 410.034 71.1982 407.943 71.1982C405.913 71.1982 404.049 71.6375 402.352 72.5163C400.655 73.3648 399.292 74.5466 398.261 76.0618C397.261 77.5769 396.731 79.3497 396.67 81.38V96.2891C396.67 98.5315 397.14 100.531 398.08 102.289C399.019 104.047 400.367 105.425 402.125 106.425C403.883 107.425 406.004 107.925 408.489 107.925C410.216 107.925 411.792 107.683 413.216 107.198C414.67 106.713 415.913 106.016 416.943 105.107C417.973 104.168 418.731 103.047 419.216 101.744H442.125C441.337 106.592 439.473 110.804 436.534 114.38C433.595 117.925 429.701 120.683 424.852 122.653C420.034 124.592 414.398 125.562 407.943 125.562ZM452.364 124.289V54.4709H477.455V79.38H481.818L496.727 54.4709H525.455L503.091 89.7436L525.636 124.289H496.545L483.091 102.653H477.455V124.289H452.364ZM528.034 73.1982V54.4709H595.67V73.1982H573.489V124.289H549.852V73.1982H528.034ZM636.693 125.562C629.239 125.562 622.814 124.138 617.42 121.289C612.057 118.41 607.92 114.289 605.011 108.925C602.133 103.531 600.693 97.0769 600.693 89.5618C600.693 82.3497 602.148 76.0466 605.057 70.6527C607.966 65.2588 612.072 61.0618 617.375 58.0618C622.678 55.0618 628.936 53.5618 636.148 53.5618C641.42 53.5618 646.193 54.38 650.466 56.0163C654.739 57.6527 658.39 60.0315 661.42 63.1527C664.451 66.2436 666.784 70.0012 668.42 74.4254C670.057 78.8497 670.875 83.8345 670.875 89.38V95.1982H608.511V81.38H647.784C647.754 79.38 647.239 77.6224 646.239 76.1072C645.269 74.5618 643.951 73.3648 642.284 72.5163C640.648 71.6375 638.784 71.1982 636.693 71.1982C634.663 71.1982 632.799 71.6375 631.102 72.5163C629.405 73.3648 628.042 74.5466 627.011 76.0618C626.011 77.5769 625.481 79.3497 625.42 81.38V96.2891C625.42 98.5315 625.89 100.531 626.83 102.289C627.769 104.047 629.117 105.425 630.875 106.425C632.633 107.425 634.754 107.925 637.239 107.925C638.966 107.925 640.542 107.683 641.966 107.198C643.42 106.713 644.663 106.016 645.693 105.107C646.723 104.168 647.481 103.047 647.966 101.744H670.875C670.087 106.592 668.223 110.804 665.284 114.38C662.345 117.925 658.451 120.683 653.602 122.653C648.784 124.592 643.148 125.562 636.693 125.562Z" fill="#5182FF"/>
</mask>
<g mask="url(#mask0_1236_2001)">
<path d="M260.59 -78.7008C260.59 -118.079 292.512 -150.002 331.891 -150.002H548.027C587.406 -150.002 619.328 -118.079 619.328 -78.7008V137.435C619.328 176.814 587.406 208.736 548.027 208.736H331.891C292.512 208.736 260.59 176.814 260.59 137.435V-78.7008Z" fill="#A16BF7"/>
<path d="M78.2383 -166.148C78.2383 -205.527 110.161 -237.449 149.539 -237.449H365.675C405.054 -237.449 436.977 -205.527 436.977 -166.148V49.9879C436.977 89.3665 405.054 121.289 365.675 121.289H149.539C110.161 121.289 78.2383 89.3665 78.2383 49.9879V-166.148Z" fill="#74C9FA"/>
<path d="M-84.6523 99.6781C-84.6523 60.2996 -52.7297 28.377 -13.3512 28.377H202.785C242.163 28.377 274.086 60.2996 274.086 99.6781V315.814C274.086 355.193 242.163 387.115 202.785 387.115H-13.3512C-52.7297 387.115 -84.6523 355.193 -84.6523 315.814V99.6781Z" fill="#67DA97"/>
<path d="M539.855 107.631C539.855 68.2527 571.778 36.3301 611.157 36.3301H617.988C657.366 36.3301 689.289 68.2527 689.289 107.631V114.462C689.289 153.841 657.366 185.763 617.988 185.763H611.157C571.778 185.763 539.855 153.841 539.855 114.462V107.631Z" fill="#ED734B"/>
</g>
</svg>
