<svg width="41" height="41" viewBox="0 0 41 41" fill="none" xmlns="http://www.w3.org/2000/svg">
<path d="M34.0664 0.683594H6.56641C3.11463 0.683594 0.316406 3.48181 0.316406 6.93359V34.4336C0.316406 37.8854 3.11463 40.6836 6.56641 40.6836H34.0664C37.5182 40.6836 40.3164 37.8854 40.3164 34.4336V6.93359C40.3164 3.48181 37.5182 0.683594 34.0664 0.683594Z" fill="#3A65D5"/>
<path d="M28.1669 15.5407V25.8265C28.1669 26.2998 27.7831 26.6836 27.3097 26.6836H13.5954C13.122 26.6836 12.7383 26.2998 12.7383 25.8265V15.5407M28.1669 15.5407C28.1669 15.0673 27.7831 14.6836 27.3097 14.6836H13.5954C13.122 14.6836 12.7383 15.0674 12.7383 15.5407M28.1669 15.5407L20.673 21.5407L12.7383 15.5407" stroke="white" stroke-width="1.5" stroke-linecap="round" stroke-linejoin="round"/>
</svg>
