<svg width="26" height="26" viewBox="0 0 26 26" fill="none" xmlns="http://www.w3.org/2000/svg">
<path d="M9.19002 21.0929C9.19002 21.1962 9.07409 21.279 8.92792 21.279C8.76159 21.2945 8.64567 21.2118 8.64567 21.0929C8.64567 20.9895 8.76159 20.9068 8.90776 20.9068C9.05897 20.8912 9.19002 20.974 9.19002 21.0929ZM7.62248 20.8602C7.5872 20.9636 7.688 21.0825 7.83921 21.1135C7.97026 21.1652 8.12147 21.1135 8.15171 21.0101C8.18196 20.9068 8.08619 20.7879 7.93498 20.7413C7.80393 20.7051 7.65776 20.7568 7.62248 20.8602ZM9.8503 20.7723C9.70413 20.8085 9.60333 20.9068 9.61845 21.0257C9.63357 21.129 9.76462 21.1962 9.91583 21.1601C10.062 21.1239 10.1628 21.0257 10.1477 20.9223C10.1326 20.824 9.99647 20.7568 9.8503 20.7723ZM13.1668 0.962891C6.17591 0.962891 0.828125 6.40635 0.828125 13.5764C0.828125 19.3094 4.34627 24.2152 9.37147 25.9418C10.0166 26.0607 10.2434 25.6523 10.2434 25.3163C10.2434 24.9958 10.2283 23.2278 10.2283 22.1423C10.2283 22.1423 6.7001 22.9177 5.95917 20.6018C5.95917 20.6018 5.38458 19.0974 4.55796 18.7097C4.55796 18.7097 3.40373 17.8981 4.63861 17.9136C4.63861 17.9136 5.89365 18.017 6.58417 19.2473C7.688 21.2428 9.5378 20.669 10.2586 20.3278C10.3745 19.5007 10.7021 18.9268 11.065 18.5857C8.24748 18.2651 5.40474 17.8464 5.40474 12.8734C5.40474 11.4518 5.7878 10.7384 6.59425 9.82855C6.46321 9.49254 6.03478 8.10711 6.7253 6.31847C7.77873 5.98246 10.2031 7.71423 10.2031 7.71423C11.2112 7.42474 12.2949 7.27483 13.3684 7.27483C14.442 7.27483 15.5257 7.42474 16.5338 7.71423C16.5338 7.71423 18.9582 5.97729 20.0116 6.31847C20.7021 8.11228 20.2737 9.49254 20.1426 9.82855C20.9491 10.7436 21.443 11.4569 21.443 12.8734C21.443 17.8619 18.4743 18.26 15.6568 18.5857C16.1205 18.994 16.5136 19.7695 16.5136 20.9843C16.5136 22.7264 16.4985 24.8821 16.4985 25.306C16.4985 25.642 16.7303 26.0504 17.3705 25.9315C22.4108 24.2152 25.8281 19.3094 25.8281 13.5764C25.8281 6.40635 20.1578 0.962891 13.1668 0.962891ZM5.72732 18.7924C5.66179 18.8441 5.67692 18.963 5.7626 19.0612C5.84325 19.144 5.95917 19.1801 6.0247 19.1129C6.09022 19.0612 6.0751 18.9423 5.98942 18.8441C5.90877 18.7614 5.79284 18.7252 5.72732 18.7924ZM5.18296 18.3737C5.14768 18.4409 5.19808 18.5236 5.29889 18.5753C5.37954 18.627 5.48034 18.6115 5.51562 18.5391C5.55091 18.4719 5.5005 18.3892 5.3997 18.3375C5.29889 18.3065 5.21825 18.322 5.18296 18.3737ZM6.81603 20.214C6.73538 20.2812 6.76562 20.4363 6.88155 20.5345C6.99748 20.6534 7.14365 20.669 7.20917 20.5862C7.2747 20.519 7.24446 20.364 7.14365 20.2657C7.03276 20.1468 6.88155 20.1313 6.81603 20.214ZM6.24143 19.4541C6.16079 19.5058 6.16079 19.6402 6.24143 19.7591C6.32208 19.878 6.45817 19.9297 6.52369 19.878C6.60433 19.8108 6.60433 19.6764 6.52369 19.5575C6.45312 19.4386 6.32208 19.3869 6.24143 19.4541Z" fill="#5182FF"/>
</svg>
