<svg width="26" height="26" viewBox="0 0 26 26" fill="none" xmlns="http://www.w3.org/2000/svg">
<path fill-rule="evenodd" clip-rule="evenodd" d="M8.17472 0.738086C9.50767 0.676722 9.93267 0.663086 13.3281 0.663086C16.7236 0.663086 17.1486 0.677859 18.4804 0.738086C19.8122 0.798313 20.7213 1.01081 21.5168 1.31877C22.3497 1.63354 23.1054 2.12559 23.7304 2.76195C24.3668 3.38581 24.8577 4.14036 25.1713 4.97445C25.4804 5.7699 25.6918 6.679 25.7531 8.00854C25.8145 9.34377 25.8281 9.76877 25.8281 13.1631C25.8281 16.5585 25.8134 16.9835 25.7531 18.3165C25.6929 19.646 25.4804 20.5551 25.1713 21.3506C24.8577 22.1848 24.3659 22.9406 23.7304 23.5654C23.1054 24.2017 22.3497 24.6926 21.5168 25.0063C20.7213 25.3154 19.8122 25.5267 18.4827 25.5881C17.1486 25.6495 16.7236 25.6631 13.3281 25.6631C9.93267 25.6631 9.50767 25.6483 8.17472 25.5881C6.84517 25.5279 5.93608 25.3154 5.14062 25.0063C4.30644 24.6926 3.55065 24.2009 2.92585 23.5654C2.28992 22.9411 1.7978 22.1857 1.48381 21.3517C1.17585 20.5563 0.964489 19.6472 0.903125 18.3176C0.841761 16.9824 0.828125 16.5574 0.828125 13.1631C0.828125 9.76763 0.842898 9.34263 0.903125 8.01081C0.963352 6.679 1.17585 5.7699 1.48381 4.97445C1.79826 4.14045 2.29076 3.38503 2.92699 2.76081C3.5509 2.12502 4.30593 1.63291 5.13949 1.31877C5.93494 1.01081 6.84403 0.79945 8.17358 0.738086H8.17472ZM18.3793 2.98809C17.0611 2.92786 16.6656 2.91536 13.3281 2.91536C9.99063 2.91536 9.59517 2.92786 8.27699 2.98809C7.05767 3.04377 6.39631 3.24718 5.9554 3.41877C5.37244 3.64604 4.9554 3.91536 4.5179 4.35286C4.10318 4.75633 3.78401 5.2475 3.58381 5.79036C3.41222 6.23127 3.20881 6.89263 3.15313 8.11195C3.0929 9.43013 3.0804 9.82559 3.0804 13.1631C3.0804 16.5006 3.0929 16.896 3.15313 18.2142C3.20881 19.4335 3.41222 20.0949 3.58381 20.5358C3.78381 21.0779 4.10313 21.5699 4.5179 21.9733C4.92131 22.3881 5.41335 22.7074 5.9554 22.9074C6.39631 23.079 7.05767 23.2824 8.27699 23.3381C9.59517 23.3983 9.98949 23.4108 13.3281 23.4108C16.6668 23.4108 17.0611 23.3983 18.3793 23.3381C19.5986 23.2824 20.2599 23.079 20.7009 22.9074C21.2838 22.6801 21.7009 22.4108 22.1384 21.9733C22.5531 21.5699 22.8724 21.0779 23.0724 20.5358C23.244 20.0949 23.4474 19.4335 23.5031 18.2142C23.5634 16.896 23.5759 16.5006 23.5759 13.1631C23.5759 9.82559 23.5634 9.43013 23.5031 8.11195C23.4474 6.89263 23.244 6.23127 23.0724 5.79036C22.8452 5.2074 22.5759 4.79036 22.1384 4.35286C21.7349 3.93817 21.2437 3.61901 20.7009 3.41877C20.2599 3.24718 19.5986 3.04377 18.3793 2.98809ZM11.7315 17.0165C12.6232 17.3877 13.6161 17.4378 14.5405 17.1582C15.465 16.8787 16.2638 16.2869 16.8004 15.4838C17.337 14.6808 17.5782 13.7163 17.4827 12.7552C17.3873 11.7942 16.9611 10.896 16.277 10.2142C15.8409 9.7784 15.3136 9.44469 14.733 9.23712C14.1525 9.02954 13.5332 8.95327 12.9196 9.01379C12.306 9.0743 11.7135 9.27011 11.1847 9.5871C10.6559 9.90409 10.204 10.3344 9.86142 10.847C9.51888 11.3596 9.29425 11.9418 9.20371 12.5517C9.11317 13.1615 9.15898 13.7839 9.33783 14.3739C9.51668 14.9639 9.82413 15.507 10.238 15.9639C10.6519 16.4209 11.162 16.7803 11.7315 17.0165ZM8.78494 8.6199C9.38156 8.02328 10.0899 7.55002 10.8694 7.22713C11.6489 6.90424 12.4844 6.73806 13.3281 6.73806C14.1719 6.73806 15.0074 6.90424 15.7869 7.22713C16.5664 7.55002 17.2747 8.02328 17.8713 8.6199C18.4679 9.21652 18.9412 9.92481 19.2641 10.7043C19.587 11.4839 19.7532 12.3193 19.7532 13.1631C19.7532 14.0068 19.587 14.8423 19.2641 15.6218C18.9412 16.4014 18.4679 17.1096 17.8713 17.7063C16.6664 18.9112 15.0321 19.5881 13.3281 19.5881C11.6241 19.5881 9.98987 18.9112 8.78494 17.7063C7.58002 16.5013 6.9031 14.8671 6.9031 13.1631C6.9031 11.4591 7.58002 9.82483 8.78494 8.6199ZM21.1781 7.6949C21.326 7.55544 21.4443 7.38772 21.5262 7.20169C21.6081 7.01566 21.6518 6.8151 21.6547 6.61187C21.6577 6.40864 21.6199 6.20689 21.5434 6.01855C21.467 5.83021 21.3536 5.65912 21.2099 5.5154C21.0662 5.37169 20.8951 5.25826 20.7068 5.18186C20.5184 5.10545 20.3167 5.0676 20.1134 5.07057C19.9102 5.07353 19.7096 5.11724 19.5236 5.1991C19.3376 5.28097 19.1699 5.39933 19.0304 5.54718C18.7592 5.83471 18.6107 6.21663 18.6164 6.61187C18.6222 7.00711 18.7818 7.38454 19.0613 7.66404C19.3408 7.94355 19.7182 8.10312 20.1134 8.10888C20.5087 8.11464 20.8906 7.96614 21.1781 7.6949Z" fill="#5182FF"/>
</svg>
