<svg width="27" height="28" viewBox="0 0 27 28" fill="none" xmlns="http://www.w3.org/2000/svg">
<path d="M7.45269 1.34473H3.63158C2.1782 1.34473 1 2.52292 1 3.97631C1 16.33 11.0147 26.3447 23.3684 26.3447C24.8218 26.3447 26 25.1665 26 23.7131V19.892C26 18.7562 25.3085 17.7348 24.2539 17.3129L20.5932 15.8487C19.6459 15.4698 18.5671 15.6407 17.7833 16.2938L16.8376 17.0819C15.734 18.0016 14.1111 17.928 13.0952 16.9121L10.4326 14.2496C9.41673 13.2337 9.34311 11.6108 10.2628 10.5071L11.0509 9.56144C11.7041 8.77763 11.875 7.69882 11.496 6.7515L10.0318 3.09086C9.60994 2.03626 8.58853 1.34473 7.45269 1.34473Z" stroke="#5182FF" stroke-width="2" stroke-linecap="round" stroke-linejoin="round"/>
</svg>
