<svg width="17" height="18" viewBox="0 0 17 18" fill="none" xmlns="http://www.w3.org/2000/svg">
<path d="M14.5851 1.67383H1.76713C1.26148 1.67383 0.851562 2.08374 0.851562 2.5894V4.04129C0.851562 4.28412 0.948024 4.517 1.11973 4.6887L6.07681 9.64578C6.24851 9.81749 6.34498 10.0504 6.34498 10.2932V15.7571C6.34498 16.4377 7.06124 16.8804 7.67 16.576L9.50114 15.6604C9.81132 15.5053 10.0073 15.1883 10.0073 14.8415V10.2932C10.0073 10.0504 10.1037 9.81749 10.2754 9.64578L15.2325 4.6887C15.4042 4.517 15.5007 4.28412 15.5007 4.04129V2.5894C15.5007 2.08374 15.0908 1.67383 14.5851 1.67383Z" stroke="#333333" stroke-width="1.5" stroke-linecap="round" stroke-linejoin="round"/>
</svg>
