<svg width="1141" height="151" viewBox="0 0 1141 151" fill="none" xmlns="http://www.w3.org/2000/svg">
<mask id="mask0_927_1396" style="mask-type:alpha" maskUnits="userSpaceOnUse" x="0" y="0" width="1141" height="151">
<path d="M1.03125 15.6836C1.03125 7.95161 7.29926 1.68359 15.0312 1.68359H1125.03C1132.76 1.68359 1139.03 7.95161 1139.03 15.6836V135.684C1139.03 143.416 1132.76 149.684 1125.03 149.684H15.0313C7.29927 149.684 1.03125 143.416 1.03125 135.684V15.6836Z" fill="#0088CC" stroke="#F5F4FB" stroke-width="2"/>
</mask>
<g mask="url(#mask0_927_1396)">
<path opacity="0.3" d="M248.158 91.6756C264.087 84.7353 274.71 80.1598 280.025 77.9492C295.2 71.6373 298.353 70.5408 300.408 70.5043C300.86 70.4967 301.871 70.6087 302.526 71.1399C303.079 71.5885 303.231 72.1945 303.303 72.6198C303.376 73.0451 303.467 74.0139 303.395 74.7709C302.572 83.4114 299.014 104.379 297.204 114.057C296.438 118.152 294.93 119.525 293.47 119.659C290.296 119.951 287.887 117.562 284.813 115.547C280.004 112.395 277.287 110.432 272.619 107.356C267.223 103.801 270.721 101.847 273.796 98.6533C274.6 97.8175 288.582 85.1003 288.852 83.9466C288.886 83.8024 288.917 83.2645 288.598 82.9806C288.278 82.6966 287.807 82.7937 287.467 82.8709C286.984 82.9804 279.301 88.0586 264.418 98.1055C262.237 99.603 260.261 100.333 258.492 100.294C256.541 100.252 252.788 99.1912 249.998 98.2843C246.575 97.1719 243.856 96.5838 244.093 94.6946C244.216 93.7106 245.571 92.7043 248.158 91.6756Z" fill="white"/>
<path opacity="0.3" d="M577.756 101.686C608.042 88.4908 628.238 79.7917 638.343 75.5887C667.194 63.5884 673.189 61.5038 677.097 61.4343C677.956 61.4199 679.878 61.6328 681.122 62.6429C682.173 63.4957 682.463 64.6478 682.601 65.4563C682.739 66.2649 682.912 68.1069 682.775 69.5462C681.211 85.9737 674.446 125.839 671.004 144.238C669.548 152.023 666.681 154.634 663.905 154.889C657.871 155.444 653.29 150.902 647.447 147.072C638.303 141.078 633.137 137.347 624.262 131.498C614.005 124.739 620.654 121.023 626.5 114.952C628.029 113.363 654.611 89.1847 655.126 86.9914C655.19 86.717 655.25 85.6945 654.643 85.1546C654.035 84.6147 653.138 84.7993 652.491 84.9461C651.574 85.1543 636.967 94.8091 608.67 113.911C604.524 116.758 600.768 118.145 597.403 118.072C593.694 117.992 586.559 115.975 581.254 114.251C574.748 112.136 569.577 111.017 570.027 107.426C570.262 105.555 572.838 103.642 577.756 101.686Z" fill="white"/>
<path opacity="0.3" d="M558.229 38.7547C565.576 35.5538 570.475 33.4436 572.926 32.424C579.925 29.513 581.379 29.0073 582.327 28.9904C582.536 28.9869 583.002 29.0386 583.304 29.2836C583.559 29.4905 583.629 29.7699 583.662 29.9661C583.696 30.1622 583.738 30.609 583.705 30.9582C583.325 34.9432 581.684 44.6137 580.849 49.077C580.496 50.9656 579.801 51.5988 579.127 51.6608C577.664 51.7954 576.552 50.6936 575.135 49.7644C572.917 48.3104 571.664 47.4053 569.511 45.9865C567.022 44.3468 568.635 43.4456 570.053 41.9728C570.424 41.5873 576.873 35.7221 576.998 35.1901C577.013 35.1235 577.028 34.8755 576.88 34.7445C576.733 34.6135 576.515 34.6583 576.358 34.6939C576.136 34.7444 572.593 37.0865 565.728 41.7201C564.722 42.4108 563.811 42.7473 562.995 42.7297C562.095 42.7102 560.364 42.2209 559.078 41.8026C557.499 41.2896 556.245 41.0183 556.354 40.147C556.411 39.6932 557.036 39.2291 558.229 38.7547Z" fill="white"/>
<path d="M763.465 97.0373C776.345 91.4254 784.935 87.7257 789.232 85.9381C801.503 80.8344 804.052 79.9478 805.714 79.9183C806.08 79.9121 806.897 80.0027 807.426 80.4323C807.873 80.795 807.996 81.285 808.055 81.6288C808.114 81.9727 808.187 82.7561 808.129 83.3682C807.464 90.3549 804.587 107.31 803.123 115.135C802.504 118.446 801.284 119.556 800.104 119.665C797.538 119.901 795.589 117.969 793.104 116.34C789.215 113.791 787.018 112.204 783.244 109.716C778.881 106.842 781.709 105.262 784.195 102.679C784.846 102.004 796.151 91.7205 796.37 90.7877C796.397 90.671 796.423 90.2361 796.164 90.0065C795.906 89.7769 795.525 89.8554 795.25 89.9178C794.86 90.0064 788.647 94.1125 776.612 102.236C774.849 103.447 773.252 104.037 771.821 104.006C770.243 103.972 767.208 103.114 764.952 102.381C762.185 101.482 759.986 101.006 760.178 99.4784C760.277 98.6828 761.373 97.869 763.465 97.0373Z" fill="white"/>
<path opacity="0.3" d="M806.947 7.21892C819.828 1.60701 828.417 -2.0927 832.715 -3.88022C844.985 -8.98395 847.535 -9.87052 849.197 -9.90011C849.562 -9.90623 850.379 -9.81565 850.909 -9.38609C851.356 -9.02338 851.479 -8.53341 851.538 -8.18952C851.596 -7.84563 851.67 -7.06224 851.611 -6.45012C850.947 0.536491 848.069 17.4912 846.606 25.3163C845.986 28.6274 844.767 29.7376 843.586 29.8462C841.02 30.0824 839.072 28.1505 836.587 26.5215C832.698 23.9723 830.501 22.3854 826.726 19.8979C822.364 17.0232 825.192 15.4432 827.678 12.861C828.328 12.1852 839.634 1.90215 839.852 0.969312C839.88 0.852645 839.905 0.417767 839.647 0.188135C839.389 -0.0414953 839.007 0.0370321 838.732 0.0994835C838.342 0.188006 832.13 4.29419 820.095 12.418C818.331 13.6289 816.734 14.2189 815.303 14.188C813.726 14.1539 810.691 13.296 808.435 12.5626C805.668 11.6632 803.469 11.1876 803.66 9.66005C803.76 8.8644 804.855 8.05069 806.947 7.21892Z" fill="white"/>
<path d="M367.804 56.2943L367.812 56.2964L367.82 56.2982C417.051 67.7265 449.783 75.4686 466.022 79.5254C489.213 85.3192 503.112 88.9405 511.821 91.5474C520.537 94.1568 523.998 95.7352 526.356 97.4227C526.859 97.7831 527.636 98.4501 528.358 99.3123C529.082 100.177 529.726 101.208 530.004 102.297C530.47 104.121 529.845 105.66 529.291 106.751C528.737 107.845 527.291 110.223 525.848 111.823C508.957 130.551 464.294 173.319 443.28 192.774C434.424 200.973 428.778 201.348 425.443 199.316C421.612 196.982 419.317 193.445 417.516 189.195C416.616 187.069 415.844 184.776 415.064 182.375C414.934 181.974 414.803 181.57 414.672 181.164C414.018 179.142 413.344 177.054 412.574 174.956C409.696 167.109 407.522 160.863 405.372 154.667L405.089 153.849C403.034 147.927 400.973 141.987 398.313 134.679C396.716 130.294 396.266 127.173 396.624 124.922C396.976 122.711 398.113 121.301 399.832 120.32C401.584 119.321 403.941 118.768 406.706 118.335C407.926 118.145 409.211 117.979 410.547 117.807C410.72 117.785 410.894 117.762 411.069 117.74C412.59 117.543 414.169 117.334 415.769 117.067C416.55 116.936 420.208 116.532 425.378 115.962C431.122 115.327 438.733 114.487 446.338 113.587C453.549 112.733 460.744 111.826 466.303 110.994C469.081 110.578 471.457 110.179 473.225 109.814C474.108 109.631 474.848 109.455 475.414 109.287C475.696 109.203 475.943 109.119 476.146 109.034C476.341 108.953 476.531 108.857 476.673 108.737C476.888 108.555 477.261 108.135 477.55 107.595C477.839 107.056 478.082 106.327 477.922 105.557C477.762 104.789 477.284 104.242 476.761 103.848C476.244 103.457 475.644 103.186 475.183 102.983C475.029 102.915 474.779 102.868 474.512 102.827C474.22 102.782 473.83 102.734 473.347 102.683C472.38 102.582 471.018 102.467 469.262 102.339C465.75 102.082 460.649 101.77 453.961 101.402C440.586 100.666 420.853 99.7084 394.764 98.5281L394.76 98.5279C387.127 98.2434 381.368 96.5343 377.416 93.4641C375.223 91.76 372.403 88.6809 369.496 85.1315C366.597 81.5913 363.639 77.6151 361.173 74.1424C360.436 73.106 359.715 72.1099 359.021 71.1522C356.835 68.137 354.926 65.5029 353.72 63.1889C352.928 61.6705 352.469 60.3438 352.418 59.1836C352.368 58.0486 352.706 57.0522 353.566 56.154C354.421 55.2611 355.974 54.7459 358.383 54.7464C360.775 54.7469 363.911 55.2566 367.804 56.2943Z" stroke="white"/>
<path d="M913.122 41.9443L913.13 41.9426L913.138 41.9406C962.117 29.4758 994.748 21.3158 1011.04 17.4595C1034.3 11.9521 1048.31 8.78363 1057.24 7.09879C1066.18 5.41231 1069.98 5.2244 1072.85 5.6401C1073.46 5.72942 1074.46 5.96498 1075.49 6.39907C1076.53 6.83449 1077.58 7.45469 1078.33 8.29405C1079.58 9.70018 1079.73 11.3543 1079.74 12.5776C1079.75 13.8037 1079.56 16.5806 1079.01 18.6648C1072.61 43.0586 1052.59 101.565 1042.86 128.499C1038.76 139.85 1033.92 142.777 1030.02 142.504C1025.55 142.19 1021.88 140.103 1018.33 137.155C1016.55 135.68 1014.82 133.998 1013.02 132.224C1012.72 131.928 1012.42 131.629 1012.11 131.328C1010.61 129.832 1009.05 128.288 1007.4 126.777C1001.24 121.13 996.439 116.58 991.683 112.064L991.055 111.468C986.509 107.152 981.95 102.823 976.23 97.5538C972.797 94.392 970.964 91.8264 970.248 89.6625C969.544 87.5374 969.907 85.7625 970.983 84.1012C972.08 82.4086 973.92 80.8352 976.177 79.1806C977.173 78.451 978.239 77.7135 979.347 76.9468C979.49 76.8475 979.634 76.7478 979.779 76.6475C981.039 75.7743 982.346 74.8625 983.644 73.8905C984.278 73.4158 987.342 71.3766 991.672 68.4947C996.483 65.2923 1002.86 61.0494 1009.2 56.7566C1015.21 52.6854 1021.19 48.5751 1025.74 45.2822C1028.02 43.6363 1029.94 42.1905 1031.35 41.0538C1032.05 40.486 1032.62 39.9898 1033.05 39.5808C1033.26 39.3764 1033.44 39.1882 1033.58 39.0194C1033.72 38.8581 1033.84 38.6853 1033.91 38.5138C1034.02 38.2529 1034.16 37.7083 1034.17 37.0963C1034.18 36.4847 1034.06 35.7254 1033.56 35.1151C1033.07 34.5066 1032.39 34.2407 1031.75 34.1302C1031.11 34.0208 1030.45 34.0559 1029.95 34.0869C1029.78 34.0972 1029.54 34.1702 1029.28 34.2563C1029 34.3506 1028.63 34.4871 1028.18 34.6641C1027.27 35.0183 1026.01 35.5423 1024.39 36.2348C1021.16 37.6202 1016.48 39.686 1010.37 42.4314C998.154 47.9226 980.186 56.1366 956.471 67.0728L956.467 67.0745C949.556 70.3285 943.656 71.4562 938.736 70.5442C936.005 70.038 932.085 68.5989 927.873 66.7813C923.671 64.9684 919.217 62.7957 915.431 60.8441C914.301 60.2616 913.202 59.7084 912.146 59.1766C908.82 57.5022 905.914 56.0394 903.779 54.5385C902.378 53.5536 901.361 52.5859 900.783 51.5788C900.217 50.5937 900.06 49.5531 900.411 48.3603C900.76 47.1744 901.903 46.0032 904.043 44.8972C906.168 43.7987 909.187 42.811 913.122 41.9443Z" stroke="white"/>
<path d="M244.728 88.1732C262.651 80.3648 274.601 75.2171 280.581 72.7299C297.654 65.6286 301.202 64.3951 303.514 64.3539C304.023 64.3454 305.16 64.4714 305.896 65.0691C306.518 65.5738 306.689 66.2555 306.771 66.734C306.853 67.2125 306.955 68.3025 306.874 69.1542C305.949 78.8753 301.946 102.466 299.909 113.354C299.047 117.961 297.35 119.506 295.708 119.657C292.137 119.985 289.426 117.297 285.968 115.031C280.558 111.484 277.501 109.276 272.249 105.815C266.179 101.815 270.114 99.6164 273.573 96.0235C274.478 95.0833 290.208 80.7755 290.513 79.4775C290.551 79.3152 290.586 78.7101 290.227 78.3906C289.867 78.0711 289.337 78.1804 288.954 78.2673C288.411 78.3904 279.767 84.1038 263.022 95.4072C260.568 97.092 258.346 97.9129 256.355 97.8699C254.16 97.8225 249.937 96.6288 246.798 95.6084C242.948 94.3569 239.888 93.6952 240.155 91.5698C240.294 90.4627 241.818 89.3305 244.728 88.1732Z" fill="white"/>
</g>
</svg>
