<svg width="26" height="26" viewBox="0 0 26 26" fill="none" xmlns="http://www.w3.org/2000/svg">
<path d="M13.3281 25.2627C20.2317 25.2627 25.8281 19.6663 25.8281 12.7627C25.8281 5.85914 20.2317 0.262695 13.3281 0.262695C6.42457 0.262695 0.828125 5.85914 0.828125 12.7627C0.828125 19.6663 6.42457 25.2627 13.3281 25.2627Z" fill="#5182FF"/>
<path fill-rule="evenodd" clip-rule="evenodd" d="M6.48635 12.6307C10.1304 11.0431 12.5603 9.99644 13.7761 9.49075C17.2475 8.04688 17.9688 7.79606 18.4389 7.78778C18.5423 7.78596 18.7735 7.81159 18.9233 7.93311C19.0498 8.03572 19.0846 8.17434 19.1012 8.27163C19.1178 8.36891 19.1386 8.59054 19.1221 8.76371C18.934 10.7403 18.12 15.5368 17.7059 17.7506C17.5307 18.6873 17.1857 19.0014 16.8517 19.0321C16.1258 19.0989 15.5745 18.5524 14.8715 18.0915C13.7713 17.3703 13.1498 16.9214 12.0819 16.2177C10.8477 15.4044 11.6478 14.9574 12.3511 14.2269C12.5352 14.0357 15.7335 11.1266 15.7954 10.8627C15.8032 10.8297 15.8103 10.7067 15.7373 10.6417C15.6642 10.5767 15.5563 10.599 15.4784 10.6166C15.3681 10.6417 13.6106 11.8033 10.2059 14.1016C9.70701 14.4442 9.25515 14.6111 8.8503 14.6023C8.40399 14.5927 7.54546 14.35 6.90723 14.1425C6.12441 13.888 5.50225 13.7535 5.55643 13.3213C5.58464 13.0963 5.89462 12.8661 6.48635 12.6307Z" fill="white"/>
</svg>
