<svg width="18" height="15" viewBox="0 0 18 15" fill="none" xmlns="http://www.w3.org/2000/svg">
<path d="M13.4413 10.9776C15.5123 11.4656 16.996 12.7823 16.996 14.33M1 14.33C1 12.3668 3.38722 10.7753 6.332 10.7753C9.27678 10.7753 11.664 12.3668 11.664 14.33M11.664 8.10933C13.6272 8.10933 15.2187 6.51785 15.2187 4.55467C15.2187 2.59148 13.6272 1 11.664 1M9.88667 4.55467C9.88667 6.51785 8.29519 8.10933 6.332 8.10933C4.36881 8.10933 2.77733 6.51785 2.77733 4.55467C2.77733 2.59148 4.36881 1 6.332 1C8.29519 1 9.88667 2.59148 9.88667 4.55467Z" stroke="white" stroke-linecap="round" stroke-linejoin="round"/>
</svg>
