<svg width="16" height="16" viewBox="0 0 16 16" fill="none" xmlns="http://www.w3.org/2000/svg">
<path d="M7.30833 1.68389C7.82676 1.24209 8.58926 1.24209 9.10768 1.68389L9.98949 2.43536C10.2116 2.62468 10.4879 2.7391 10.7788 2.76231L11.9337 2.85448C12.6127 2.90866 13.1519 3.44783 13.2061 4.12681L13.2982 5.28172C13.3214 5.57268 13.4359 5.8489 13.6252 6.07105L14.3767 6.95286C14.8185 7.47129 14.8185 8.23379 14.3767 8.75222L13.6252 9.63402C13.4359 9.85618 13.3214 10.1324 13.2982 10.4234L13.2061 11.5783C13.1519 12.2572 12.6127 12.7964 11.9337 12.8506L10.7788 12.9428C10.4879 12.966 10.2116 13.0804 9.98949 13.2697L9.10768 14.0212C8.58926 14.463 7.82676 14.463 7.30833 14.0212L6.42652 13.2697C6.20436 13.0804 5.92814 12.966 5.63718 12.9428L4.48228 12.8506C3.8033 12.7964 3.26413 12.2572 3.20995 11.5783L3.11778 10.4234C3.09456 10.1324 2.98015 9.85618 2.79083 9.63402L2.03936 8.75222C1.59756 8.23379 1.59756 7.47129 2.03936 6.95286L2.79083 6.07105C2.98015 5.8489 3.09456 5.57268 3.11778 5.28172L3.20995 4.12681C3.26413 3.44783 3.8033 2.90866 4.48228 2.85448L5.63718 2.76231C5.92814 2.7391 6.20436 2.62468 6.42652 2.43536L7.30833 1.68389Z" stroke="#5182FF" stroke-width="1.5" stroke-linecap="round" stroke-linejoin="round"/>
<path d="M10.3743 6.41113L7.48546 9.30002L6.04102 7.85558" stroke="#5182FF" stroke-width="1.5" stroke-linecap="round" stroke-linejoin="round"/>
</svg>
