<svg width="26" height="26" viewBox="0 0 26 26" fill="none" xmlns="http://www.w3.org/2000/svg">
<path fill-rule="evenodd" clip-rule="evenodd" d="M2.58548 2.12064C0.828125 3.878 0.828125 6.70641 0.828125 12.3633V13.3633C0.828125 19.0202 0.828125 21.8485 2.58548 23.6059C4.34284 25.3633 7.17125 25.3633 12.8281 25.3633H13.8281C19.485 25.3633 22.3134 25.3633 24.0708 23.6059C25.8281 21.8485 25.8281 19.0202 25.8281 13.3633V12.3633C25.8281 6.70641 25.8281 3.878 24.0708 2.12064C22.3134 0.363281 19.485 0.363281 13.8281 0.363281H12.8281C7.17125 0.363281 4.34284 0.363281 2.58548 2.12064ZM4.63332 7.8631C4.77136 14.4217 8.08424 18.3631 13.8925 18.3631H14.2218V14.6108C16.3561 14.8211 17.9699 16.3661 18.6176 18.3631H21.6333C20.8051 15.3781 18.6282 13.728 17.2691 13.0973C18.6282 12.3196 20.5395 10.4277 20.9961 7.8631H18.2565C17.6619 9.94418 15.8995 11.8361 14.2218 12.0147V7.8631H11.4821V15.1364C9.78318 14.7159 7.63832 12.6769 7.54276 7.8631H4.63332Z" fill="#5182FF"/>
</svg>
